<svg class="qodef-svg" preserveAspectRatio="none" version="1.1" xmlns="http://www.w3.org/2000/svg" xmlns:xlink="http://www.w3.org/1999/xlink" x="0px" y="0px"
	 viewBox="0 0 895 325" enable-background="new 0 0 895 325" xml:space="preserve">
<path fill="#ffffff" d="M381.5,10.2c-1-0.5-2.9-0.4-3.3,0.2C379.4,10.7,381,11.3,381.5,10.2z"/>
<path fill="#ffffff" d="M392.4,11.9c0.5-0.1,0.2,0.1,0.3,0.3h0.3c0,0,0.1-0.1,0.2,0c-0.2-0.7,0.5-0.5,0.4-1.1
	c-0.8,0.1-1.4-0.2-1.6,0.5C392.4,11.5,392.6,11.7,392.4,11.9z"/>
<path fill="#ffffff" d="M347.6,11.1c0.9-0.4,0.2-1.1,0.1-1.7c-1.8-0.3-4.6,0-6.2,0.4C342.4,10.6,344.6,11.3,347.6,11.1z"/>
<path fill="#ffffff" d="M404,10.5c-0.2-0.3-0.8,0-1,0.1C403.2,10.6,404,11,404,10.5z"/>
<path fill="#ffffff" d="M351.3,8.4c-0.1,0.1-0.2,0.1-0.3,0.2c0,0,0.1,0,0.1,0.1C351,8.6,351.1,8.5,351.3,8.4z"/>
<path fill="#ffffff" d="M491.5,5.3c-0.4,0-0.2-0.3-0.2-0.4c-1.3-0.2-2.8-0.5-3.6,0.1C487.9,5.8,490.7,6,491.5,5.3z"/>
<path fill="#ffffff" d="M466.5,7.9c-0.6-0.1-1.3-0.2-2-0.2c0.6,0.1,1.1,0.2,1.7,0.4C466.2,8,466.4,7.9,466.5,7.9z"/>
<path fill="#ffffff" d="M445.8,7c-0.4,0-1,0-1.6,0.1C444.8,7.2,445.4,7.3,445.8,7z"/>
<path fill="#ffffff" d="M238,4.7c0.4,0,0.9,0,1-0.1c-0.4,0-0.2-0.2,0-0.3c-0.4,0-0.9,0-1,0.1C238.4,4.4,237.9,4.5,238,4.7z"/>
<path fill="#ffffff" d="M552.7,9.4c-0.1,0-0.1,0.1,0,0.1c0-0.2,0.4-0.1,0.4-0.3c-0.6,0-0.8-0.2-1.1,0.1
	C552.2,9.3,552.7,9.1,552.7,9.4z"/>
<path fill="#ffffff" d="M268.1,4.8c-0.6,0-1,0.1-1.3,0.3c0.1,0,0.3,0,0.4,0.1C267.5,4.9,268,5,268.1,4.8z"/>
<path fill="#ffffff" d="M319.7,5.4c2,0,3.5,0.4,5,0.3c-0.3,0.1-0.3,0.4-0.2,0.6c1.1-0.1,0.3,0.4,0.7,0.4c0.1-0.2,0.3,0,0.5,0.1
	c0.5-0.4,0.8-0.1,1.4,0c0.5-0.2,0.6-0.6,1.4-0.7c-0.6,0-0.7,0.2-1-0.1c0.6,0,0.5-0.2,1.2-0.1c1,0.7,2.6-0.2,3.3,0.5
	c-0.2,0.1-0.3,0.2-0.3,0.4c0.3,0,0.5,0.1,0.8,0.1c1.7,0,3.6,0,5.4,0.2c0.2-0.1,0.3-0.1,0.4-0.2c0.8,0,1.7,0,2.6-0.1
	c-2-0.3-2.8-1.6-5.2-1.4c0.1-0.4-3.6-0.4-4.3,0.1c-0.2-0.2-1.1-0.7-1.4-0.5c0.2,0,0.3,0.2,0,0.2c-0.9,0-1.3-0.2-1.7-0.4
	c0.5-0.1,1.1,0.1,1.2-0.4c-1.4-0.2-2.3,0-3.6-0.3c0,0.6,0.5,0.1,0.7,0.7c-1.6-0.1-2.9,0.3-4.3-0.5c-0.6,0-0.5,0.2-1.2,0.1
	c0,0.2,0.1,0.4-0.2,0.4c-0.4-0.1,0-0.5-0.5-0.5c-0.3,0.3-1.2,0.4-1.2,0.6c-0.2,0-0.5,0-0.5,0.1C319.8,5,320.2,5.2,319.7,5.4z"/>
<path fill="#ffffff" d="M234.2,6.7c1,0.1,1.4,0.5,2.9,0.3c0.4-0.3-0.1-0.4,0.2-0.6c-0.7-0.1-0.5,0.3-1.2,0.2
	c0.4-0.4-0.8-0.1-0.7-0.3c0.4,0,0-0.1-0.2,0c-0.4-0.2,0.2-0.8-0.2-0.5c-0.5,0.4-0.8-0.2-1.2-0.2c-0.1,0.2-0.4-0.1-0.5,0.1
	C234,6,233.8,6.1,234.2,6.7z"/>
<path fill="#ffffff" d="M276.4,3.7c-0.8-0.1,0.3-0.2,0.2-0.3c-0.3,0-0.4-0.2-0.7-0.2c0.1,0.2,0,0.4-0.2,0.5
	C276,3.7,276.3,3.9,276.4,3.7z"/>
<path fill="#ffffff" d="M309.9,5.2c-0.1-0.2,0.3-0.2,0.2-0.4c-0.6,0-1-0.2-1.2,0.1C309.5,4.9,309.5,5.2,309.9,5.2z"/>
<path fill="#ffffff" d="M313.7,4.1c-0.3,0-0.4,0.1-0.5,0.2c0.9,0,1.4-0.1,1,0.3c1.1,0.2,0.5-0.4,1-0.5c-0.6,0-1.1-0.1-1.4-0.2
	c0-0.1,0-0.1-0.2-0.1C313.5,4,313.6,4.1,313.7,4.1z"/>
<path fill="#ffffff" d="M309.5,4.2c-0.3,0-0.6,0-0.5,0.2c1.3,0,2,0.2,3.3,0.4c0.4-0.2,0.9-0.5,1-0.9c-0.7-0.2-1.7-0.6-2.4-0.2
	c0.6-0.4-1.8-0.7-2.6-0.4c0.4,0-0.1,0.5-0.7,0.3C307.3,4.4,309,4.1,309.5,4.2z"/>
<path fill="#ffffff" d="M891.7,38c0-0.4,0.2-0.4,0.2-0.7c-0.2,0.1-0.4,0-0.5-0.2c0,0.3-0.2,0.6,0,0.7C891.5,36.9,891.6,38,891.7,38z
	"/>
<path fill="#ffffff" d="M787,7.1c-0.4,0-1,0-1.6,0.1C786,7.2,786.6,7.3,787,7.1z"/>
<path fill="#ffffff" d="M801.3,9.6c-0.1-0.5,0.2-0.3,0.7-0.4c-0.5-0.6,0.4-0.7,1-1.1c-1,0.1-1.3-0.2-2.4-0.1
	c-0.1,0.1-0.3,0.2-0.5,0.3c-0.1-0.1-0.3-0.2-0.7-0.2c0.1,0.4-0.5,0.1-0.9,0.1c0,0.1-0.1,0.2-0.2,0.3c0,0.1,0.1,0.3,0.1,0.4
	C799,9.3,799.8,9.6,801.3,9.6z"/>
<path fill="#ffffff" d="M765.7,7.9c-0.3,0.1-0.5-0.1-0.6,0.1C765.3,8,765.5,8,765.7,7.9C765.7,8,765.7,7.9,765.7,7.9z"/>
<path fill="#ffffff" d="M692.2,8.7C692.2,8.7,692.2,8.7,692.2,8.7c0-0.1,0.1-0.1,0.3-0.2C692.3,8.5,692.2,8.6,692.2,8.7
	C692.1,8.7,692.1,8.7,692.2,8.7C692.1,8.7,692.1,8.7,692.2,8.7z"/>
<path fill="#ffffff" d="M660.8,5.5c2,0,3.5,0.4,5,0.3c-0.3,0.1-0.3,0.4-0.2,0.6c1.1-0.1,0.3,0.4,0.7,0.4c0.1-0.2,0.3,0,0.5,0.1
	c0.5-0.4,0.8-0.1,1.4,0c0.5-0.2,0.6-0.6,1.4-0.7c-0.6,0-0.7,0.2-1-0.1c0.6,0,0.5-0.2,1.2-0.1c1,0.7,2.6-0.2,3.3,0.5
	c-0.2,0.1-0.3,0.3-0.2,0.5c2.6-0.1,6.4,0.1,8.8,0.4c-0.7-0.3,0.5-0.3,0.5-0.3c-0.3,0-0.1-0.1,0-0.2c-2-0.3-2.8-1.6-5.2-1.4
	c0.1-0.4-3.6-0.4-4.3,0.1c-0.2-0.2-1.1-0.7-1.4-0.5c0.2,0,0.3,0.2,0,0.2c-0.9,0-1.3-0.2-1.7-0.4c0.5-0.1,1.1,0.1,1.2-0.4
	c-1.4-0.2-2.3,0-3.6-0.3c0,0.6,0.5,0.1,0.7,0.7c-1.6-0.1-2.9,0.3-4.3-0.5c-0.6,0-0.5,0.2-1.2,0.1c0,0.2,0.1,0.4-0.2,0.4
	c-0.4-0.1,0-0.5-0.5-0.5c-0.3,0.3-1.2,0.4-1.2,0.6c-0.2,0-0.5,0-0.5,0.1C660.9,5.1,661.3,5.2,660.8,5.5z"/>
<path fill="#ffffff" d="M32.7,5.7h0.8c-0.1-0.1,0-0.2,0.1-0.3c-0.4,0-0.9,0-1,0.1C32.9,5.5,32.8,5.6,32.7,5.7z"/>
<path fill="#ffffff" d="M832.7,5.4c-0.4,0-0.2-0.3-0.2-0.4c-1.3-0.2-2.8-0.5-3.6,0.1C829,5.8,831.8,6,832.7,5.4z"/>
<path fill="#ffffff" d="M803,9.2c1,0.1,0.7-0.2,1.4-0.2c0.8,0.6,4.1,0.8,5.5,0.4c0.6-1.3-4.5-2.2-6.7-1.3C803.2,8.7,803.7,9,803,9.2
	z"/>
<path fill="#ffffff" d="M650.6,4.3c-0.3,0-0.6,0-0.5,0.2c1.3,0,2,0.2,3.3,0.4c0.4-0.2,0.9-0.5,1-0.9c-0.7-0.2-1.7-0.6-2.4-0.2
	c0.6-0.4-1.8-0.7-2.6-0.4c0.4,0-0.1,0.5-0.7,0.3C648.4,4.5,650.2,4.2,650.6,4.3z"/>
<path fill="#ffffff" d="M650.1,4.9c0.5,0,0.5,0.3,1,0.3c-0.1-0.2,0.3-0.2,0.2-0.4C650.8,4.8,650.3,4.6,650.1,4.9z"/>
<path fill="#ffffff" d="M654.9,4.2c-0.3,0-0.4,0.1-0.5,0.2c0.9,0,1.4-0.1,1,0.3c1.1,0.2,0.5-0.4,1-0.5c-0.6,0-1.1-0.1-1.4-0.2
	c0-0.1,0-0.1-0.2-0.1C654.6,4,654.8,4.1,654.9,4.2z"/>
<path fill="#ffffff" d="M553.4,9.5c0.1-0.2,0.2,0.3,0.5,0.3c-0.1,0-0.1,0.2-0.1,0.3c-0.3-0.3-0.2,0.1-0.4,0.2
	c0.1,0.1,0.2,0.1,0.3,0.1c0.3-0.1,0.7,0,0.8,0.1c0,0,0,0,0,0V10c-0.2,0-0.3,0.1-0.5-0.2c0.1-0.2,0.3-0.3,0.2-0.5
	c-0.4,0-0.7-0.2-1.1,0C553.7,9.2,553.1,9.5,553.4,9.5z"/>
<path fill="#ffffff" d="M617.6,3.8c-0.8-0.1,0.3-0.2,0.2-0.3c-0.3,0-0.4-0.2-0.7-0.2c0.1,0.2,0,0.4-0.2,0.5
	C617.2,3.8,617.4,3.9,617.6,3.8z"/>
<path fill="#ffffff" d="M552.9,10c0.1,0.1,0.2,0.2,0.3,0.2c0-0.3,0.2-0.4,0-0.5c-0.2,0.2-0.7,0.2-1.1,0.2
	C552.4,9.9,552.6,10,552.9,10z"/>
<path fill="#ffffff" d="M233.9,7.2c0.1-0.3-0.7-0.7-0.7-0.5c0.3,0.2-0.6,0.4,0,0.4C233.3,6.8,233.6,7.3,233.9,7.2z"/>
<path fill="#ffffff" d="M650.4,6.5c0-0.2,0.6-0.1,1-0.1c0-0.1,0-0.2,0-0.3c-0.7,0.1-1,0-1.2,0.1c0.2,0,0.3,0.1,0.2,0.2
	C650.2,6.4,650.1,6.5,650.4,6.5z"/>
<path fill="#ffffff" d="M653,6.6c-0.7,0-0.2-0.4-0.7-0.4c0.2,0.4-1,0.1-0.7,0.5c0.2,0.2,0.4,0.3,1,0.3C652.2,6.7,652.9,6.8,653,6.6z
	"/>
<path fill="#ffffff" d="M886.7,115C886.7,115,886.7,115.1,886.7,115C886.7,115.1,886.7,115.1,886.7,115c0.1,0.1,0.1,0.2,0.2,0.3
	C886.8,115.2,886.8,115.1,886.7,115C886.7,115,886.7,115,886.7,115z"/>
<path fill="#ffffff" d="M886.2,230c-0.1,1,0.2,0.8,0.2,1.5c-0.6,0.8-0.7,4.2-0.4,5.7c1.2,0.6,2.1-4.7,1.2-6.9
	C886.7,230.3,886.4,230.8,886.2,230z"/>
<path fill="#ffffff" d="M887.4,299c0.3,0.1,0.3,1.6,0.6,2.2c0.2-0.8,0.1-1.5,0.2-2c-0.3-0.2-0.2,0.5-0.4,0.5c0-0.2-0.1-0.3-0.1-0.5
	c0-0.3,0.3-0.9,0.1-1C887.8,298.7,887.3,297.9,887.4,299z"/>
<path fill="#ffffff" d="M886.2,229.1c0.6-0.6,0.7,0.5,1,1c-0.1-1.1,0.2-1.4,0.1-2.5c-0.1-0.1-0.2-0.3-0.3-0.5
	c0.1-0.1,0.2-0.3,0.2-0.7c-0.4,0.1-0.1-0.5-0.1-1c-0.1,0-0.2-0.1-0.3-0.2c-0.1,0-0.3,0.1-0.4,0.1c-0.4,0.7-0.6,1.6-0.7,3.1
	C886.3,228.2,886,228.5,886.2,229.1z"/>
<path fill="#ffffff" d="M888.1,211.8c-0.1,0.6-0.2,1.2,0.1,1.6C888.2,213,888.2,212.4,888.1,211.8z"/>
<path fill="#ffffff" d="M873.3,6.1c0,0-0.1,0-0.2,0.1c1-0.1,1.9,0,2.7-0.1c0,0,0.1-0.1,0.1-0.1C875,6.1,874.2,6.1,873.3,6.1z"/>
<path fill="#ffffff" d="M883.4,275.1C883.4,275.2,883.3,275.2,883.4,275.1l-0.1,1.7c0.1-0.2,0.2-0.4,0.3-0.5
	C883.1,276.4,883.7,275.4,883.4,275.1z"/>
<path fill="#ffffff" d="M890.3,260.6c0.2-1.3,0.5-2.9-0.1-3.7c-0.7,0.2-1,3.1-0.3,3.9C889.9,260.5,890.1,260.6,890.3,260.6z"/>
<path fill="#ffffff" d="M891.4,70c-0.7-0.3-0.4,1.5-0.5,2c0-0.3,0-0.6-0.2-0.5c0,1.3-0.2,2.1-0.4,3.5c0.2,0.4,0.4,0.9,0.8,1
	c0.2-0.7,0.6-1.7,0.2-2.5c0.4,0.7,0.7-1.9,0.4-2.7C891.7,71.2,891.3,70.7,891.4,70z"/>
<path fill="#ffffff" d="M891,76.4c0-0.3-0.1-0.4-0.2-0.5c0,1,0.1,1.4-0.3,1c-0.2,1.1,0.4,0.5,0.5,1c0-0.6,0.1-1.2,0.2-1.5
	c0.1,0,0.1,0,0.1-0.2C891.2,76.2,891.1,76.3,891,76.4z"/>
<path fill="#ffffff" d="M890.3,90c0.1-1.7-0.3-3,0.5-4.4c0-0.6-0.2-0.5-0.1-1.2c-0.2,0-0.4,0.1-0.4-0.2c0.1-0.4,0.5,0,0.5-0.5
	c-0.3-0.3-0.4-1.3-0.6-1.2c0-0.2,0-0.5-0.1-0.5c0.1,0.8-0.1,1.3-0.3,0.7c0,2.1-0.4,3.6-0.3,5.2c-0.1-0.3-0.4-0.3-0.6-0.2
	c0.1,1.1-0.4,0.3-0.4,0.7c0.2,0.1,0,0.3-0.1,0.5c0.3,0.5,0.1,0.9,0,1.5c0.2,0.5,0.6,0.7,0.7,1.5c0-0.6-0.2-0.8,0.1-1
	c0,0.6,0.2,0.5,0.1,1.2c-0.6,1,0.2,2.7-0.5,3.5c-0.1-0.2-0.3-0.3-0.5-0.2c0.1,2.7-0.1,6.6-0.4,9.1c0.3-0.8,0.2,0.5,0.3,0.5
	c0-0.3,0.1-0.2,0.2,0c0.3-2.1,1.6-2.9,1.3-5.4c0.4,0.1,0.3-3.8-0.1-4.4c0.2-0.2,0.7-1.1,0.5-1.5c0,0.3-0.2,0.3-0.2,0
	c0-0.9,0.2-1.3,0.4-1.7c0.1,0.5-0.1,1.1,0.4,1.2c0.2-1.4,0-2.4,0.3-3.7C890.4,89.2,890.9,89.7,890.3,90z"/>
<path fill="#ffffff" d="M872.4,6.3c-0.4,0.1-0.7,0.1-0.9-0.2c-0.1,0-0.1,0-0.2,0.1c0.3,0.1,0.6,0.2,1,0.3
	C872.7,6.5,872.4,6.4,872.4,6.3z"/>
<path fill="#ffffff" d="M887.4,191.4c-0.1-0.3,0.1-0.5-0.1-0.7C887.4,191,887.4,191.2,887.4,191.4
	C887.4,191.4,887.4,191.4,887.4,191.4z"/>
<path fill="#ffffff" d="M0,0v325h895V0H0z M891.4,287.5c0-0.3-0.2-0.6,0-0.7c0.1,0.8,0.2-0.3,0.3-0.2c0,0.4,0.2,0.4,0.2,0.7
	C891.7,287.2,891.5,287.3,891.4,287.5z M894.9,106.2c-0.6,0.5-1,0.7-1.5,0.5c-0.7,2.4-1.6,4.2-2.8,2.5c-1.3,0.2-1.1,5.9-1,7.6
	c0.1-0.1,0.2-0.2,0.2-0.5c0.3,0.6,0.1,2.2,0.7,2c0.2,1.3-0.3,1.1-0.3,2c-0.3-0.2-0.5-0.9-0.7,0c-0.1-1-0.1-2.2,0-3.5
	c-0.4,0.9-0.5-1-0.7-2c-0.6,0.1-0.8,0.1-1-0.7c-0.3,0.3-0.5,0.7-0.7,1.4c0.1,0.1,0.2,0.1,0.4,0c0.3,0.2,0,1,0.5,0.9
	c-0.2,0.4,0,0.7-0.3,0.8c-0.2,1,0.1,1.7,0.1,2.6c0,1.3-0.4,2.5-0.7,3.6c0,0.4,0.2,0.8,0.5,1.1c-0.2,1.5,0.2,3.7-0.3,4.7
	c0.1,0.6,0.1,1.3,0.1,2c0.1,0.1,0.1,0.2,0.2,0.3c-0.1,0.6-0.1,1.2-0.1,1.7c0,0,0,0,0.1,0c0,0.1,0,0.1-0.1,0.2c0,0,0,0,0,0
	c0,0.2,0,0.3,0,0.4c0,0.8,0.1,1.7,0,2.4c0.2,0,0.3,0.1,0.5,0c0.2,1-0.3,2.1,0.2,2.4c-0.2,0.4-0.3,1,0.3,1c0,0.7-0.2,0.7-0.2,1.1
	c0.5,0.3,0.1,0.8,0.4,1.1c-0.7,0.3-0.9,1-0.9,1.9c0,0,0,0,0,0c0,0,0,0.1,0,0.1c0,1.3,0.2,2.7-0.4,3.4c0,3.8,0.1,7.4-0.3,11.5
	c0.1,0.6,0.2-0.3,0.3,0.2c0,1.7,0.2,3.1-0.3,4.4c0.2-0.2,0.3,1.6,0,1.7c0.5,0.9,0.1,2.5,0.3,3.9c-0.1,0-0.3,0-0.4,0
	c0.5,2.3,0.5,5.1,0.6,7.6c-0.2,0-0.2-0.3-0.4-0.2c0.4,1.8,0.5,7.4-0.1,7.9c0,0.7,0.3,0.6,0.4,1c0.1,1-0.3,0.6-0.4,1
	c0,0.3,0.1,0.1,0.1,0c0.1,1.3,0.2,2.7,0.2,4.2c0.1,0,0.3,0.1,0.4,0c-0.1,1.7,0.1,3.3,0.1,5c-0.1,0.5-0.3,1.3-0.3,2
	c0,0.1,0.2,0.3,0.2,0.3c-0.2,0.9-0.6,1.2-0.8,2.4c-0.2,1.3-0.2,2.8-0.8,4c0.1,0.4,0.2,0.7,0.6,0.6c0.1,1.4,0,3,0.1,4.5
	c0,0,0.1-0.1,0.1-0.1c0,0.1-0.1,0.1-0.1,0.1c0,0.1,0,0.2,0,0.4c0.8-0.6,0.8,1.3,1.3,2c0,0,0,0.1,0,0.1c0.3,0.2,0.2-0.5,0.2-1
	c0.3,0,0.2-0.4,0.4,0c0-0.8-0.1-1.1-0.4-1c0.1-1.8-0.1-3.1-0.1-4.7c0.2,0,0.3,0,0.5,0c0.2,2.9,0.1,6.5,0.7,7.6
	c0.1,0.5-0.2,0.3-0.2,0.7c0.4,1.3,0.4,2.5,0.9,3.7c-0.2,0.8,0,2.7-0.4,3c-0.1,0.8,0.4,0.3,0.3,1.2c-0.2,0.1-0.3-0.2-0.4-0.2
	c0,0.7,0,1.4-0.1,2.2c0.1,0.5,0.2,1.1,0.1,1.8c0.4-0.1,0.3,3,0,4.1c0,0.2,0,0.4,0.1,0.6c0.2,0.4,0.5,0.9,0.3,1.2
	c0-0.3-0.2-0.3-0.2,0c0,0.9,0.2,1.3,0.4,1.7c0.1-0.5-0.1-1.1,0.4-1.2c0.2,1.4,0,2.4,0.3,3.7c-0.6,0-0.1-0.5-0.7-0.7
	c0.1,1.3-0.1,2.3,0.1,3.4c0.2,0.4,0.6,0.4,0.9,0c0.2,2.4-0.6,4.1-0.3,6.2c0.2,0,0.4,0,0.6,0c-0.2,1,0.1,1.7,0,3
	c-0.1,0.2-0.3,0.4-0.4,0.7c0,0.1,0,0.2,0,0.3c0,0,0.1,0.1,0.1,0.2c0,0,0,0,0,0c0,0.3,0.1,0.7,0.1,1.1c0.1,0.5,0.2,1,0.1,1.4
	c0,0,0,0.1,0,0.1c0.3-0.2,0.6,2.1,0.3,2.8c0-0.3-0.2-0.2-0.3,0.1c0,2.3,0,4.8,0.1,7c0,3.3-0.5,6-1,7.6c-0.6-0.2-0.7,0.1-1-0.5
	c0,1,0.1,2.2-0.3,3c0,0.3,0.2,0.2,0.3,0.2c-0.5,3.1,1.1,3.7,0.8,6.7c0.5-0.9-0.1,1.9,0.5,2c-0.7,5.6,0.4,13-0.4,19
	c-0.8,0.4-1.3,1.7-1.6,3.2c0.1,0.6,0.2-0.3,0.3,0.2c0.3,2-0.1,3.6,0.4,4.9c0,2.1-1,6.6-0.1,7.9c0,1.1,0.1,2.2,0.1,3.4H888
	c-0.1-0.2-0.1-0.4-0.2-0.7c0-0.9,0.3-1.7,0.5-1.2c0-0.7-0.2-1.3-0.4-1.5c0.2-0.9,0.2-0.8-0.1-1c0-0.6,0.7-1.7,0-1.7
	c0.2-0.5,0.1-1.8,0.4-2.2c0-0.7-0.6-0.2-0.3-1c-0.7,0-0.4,2.3-0.9,2.2c-0.1,1,0.2,3.1,0.3,2c0.3,0.7-0.6,3.1,0.1,3.2
	c0,0.9-0.5,2.3-0.7,1.2c-0.1,0.2-0.1,0.4-0.2,0.7h-2.9c0-0.9-0.1-1.7-0.1-2.6c-0.1,0.1-0.1,0.1-0.2,0v3H882v0c0,0-0.1,0-0.1,0h-5.6
	c-0.6,0.3-2.1,0.1-1.8,0.7c-1.3,0.2-1-0.3-1.9-0.3c0.1-0.2,0.3-0.3,0.4-0.4h-5.3c1.3,0.7-2.4,0.9-4.9,0.7c0.8-0.3-0.6-0.1-0.7-0.3
	c-0.3,0,0,0.2,0.2,0.2c-1,0.3-2.5-0.4-3.6,0.1c0,0.1,0.4,0.1,0.7,0.1c-0.1,0.4-1,0.5-2.1,0.4c-0.1-0.2,0.2-0.2,0.2-0.3
	c-1.7,0-3.7-0.1-5-0.3c0-0.2,0.3-0.3,0.3-0.6H844v-1.7c-1,0-2.2-0.3-2.9,0.3c-0.6-0.2-1.4-0.3-1.7-0.6c-3.3,0-8.3-0.9-12.8-0.3
	c0-0.1,0-0.3,0-0.4c-0.2,0.1-0.5,0.1-1,0.1c0.6,0.8,2.2,1.1,2.4,1.8c1.3-0.1,1.6,0.3,3.6,0.2c-0.1,0.1-0.5,0.1-0.5,0.2
	c0.6,0.1,2.1-0.1,2.4,0.4c0.3,0,0.2-0.2,0.2-0.3c1.1,0.3,1.4,0.3,2.8,0.4c-1.4-0.3,0.6-0.2,1.2-0.3c0.2,0.3-0.8,0.2-1,0.3
	c1.5-0.1,3,0.4,5,0.2c0,0.2,0.6,0.1,0.5,0.4c0.6,0,1.1,0,1.7,0c0.2-0.8,3.8,0,3.8-0.6c1.3,0.4,3.9,0.3,3.8,1.4
	c-0.2,0-0.2-0.1-0.2-0.2c-3.3,0.5-5.6-0.1-8.3-0.4c-0.3,0.1-0.8,0.2-0.7,0.4c-1.5-0.2-3.9,0.1-4.8-0.5c-0.9,0-2.7,0.2-2.1-0.1
	c-1.7,0.1-1.3,0-3.3,0.1c0.9,0.6-3,0.2-3.6-0.1c0.3,0.4-0.8,0.2-2.1,0.4c0-0.1,0-0.3,0-0.4c-0.7,0.1-0.3,0.2-0.2,0.4
	c-0.9,0-1.4,0.2-2.1,0.3c-0.2-0.1-0.5-0.2-0.7-0.3c-0.7,0-0.9,0.2-1.2,0.4c1-0.3,2.2,0,2.4,0.9c-0.7,0-1.5,0.1-1.4,0.5
	c-0.4,0-0.8,0-1.2,0c-0.2-0.3,0.4-0.3,0.5-0.5c-0.5,0.1-0.7,0.3-1,0.5c-2.6-0.1-3.2-0.3-5.5,0.3c-2.8-1.1-7.7-0.2-10.2-0.9
	c-0.2,0.2-0.7,0.3-1.4,0.2c-0.4-0.6-1.6-0.9,0-1.3c1.9,0.4,4.6,0.7,6.7,1c0.7-0.1,0.3-0.2,0.2-0.4c0.4,0,1.2-0.1,1,0.2
	c0.4,0,0.2-0.3,0.9-0.2c-0.1-0.1-0.2-0.2-0.2-0.3c0.7-0.1,0.6,0.2,1,0.2c-1.2-0.6-1.8-1-3.8-1.2c-0.1-0.2,0.2-0.2,0.2-0.3
	c-1.3,0.4-1.1-0.4-2.6-0.3c0,0.3,0.4,0.3,0.7,0.4c-1,0.3-2.2-0.1-3.1,0.5c-0.5-0.1-1.3-0.4-0.7-0.6c-1.9,0.3-4.6,0.4-5.5,0.5
	c-0.9-0.4-2.3-0.5-2.9-1.1c-0.7-0.1-0.3,0.4-1.2,0.2c0,0.3,1,0.3-0.2,0.3c0.2,0.1,0.4,0.2,0.7,0.2c-0.9,0.3-1.1-0.6-1.7-0.7
	c-0.9-0.1-1.3,0.3-1.9,0c0.3,0.2,0.3,0.3,0,0.4c0.6,0.1,1-0.3,1,0.1c-0.4,0-0.8,0-1.2,0c0.8,0.4,1.7,1,3.6,0.9
	c0.2,0.2,0.7,0.3,0.5,0.6c1.3-0.1,5.2,0,6.2,0.7c-1.2-0.2-1.3,0.2-2.4-0.1c-0.5,0,0.3,0.3-0.2,0.4c-0.5-0.4-0.9,0-1.4,0
	c-2.7,0-5.1-0.4-7.4-1c0.3-0.5-0.9-0.2-0.7-0.6c-0.1,0.1-0.8,0.9-0.2,1.1c-1.1-0.1-2.6,0.3-4.3-0.1c-0.4,0.6-2.6,0.2-3.8,0.2
	c0,0.1,0.3,0.1,0.5,0.1c-3.4,0.4-10.2-0.7-15.2,0.2c-0.3,0.5,0.5,0.5,1,0.6c-0.9,0.9-2.8,0.5-4.3,0.9c-2.4-0.5-4.9,0.6-8.1,0.4
	c-0.1,0.3,0.9,0.1,0.7,0.4c-0.5,0.2-1.1-0.1-2.1,0c-0.4-0.6-0.7-1-0.5-1.6c-1.3-0.4-2.4-0.9-2.8-1.4c-0.1,0-0.1,0-0.2,0
	c-0.2-0.1-0.4-0.3-0.7-0.4c-2.3,0.3-8.2,0.3-12.6,0.3c-3.1,0-5.8-0.5-7.4-1.1c0.1-0.6-0.1-0.8,0.5-1.1c-0.9,0-2.1,0.1-2.9-0.3
	c-0.3,0-0.2,0.2-0.2,0.3c-3-0.6-3.5,1.1-6.4,0.9c0.8,0.5-1.8-0.1-1.9,0.5c-5.4-0.8-12.5,0.4-18.3-0.4c-0.4-0.9-1.6-1.3-3.1-1.7
	c-0.5,0.1,0.3,0.2-0.2,0.3c-1.9,0.3-3.5-0.1-4.8,0.4c-2,0-6.4-1.1-7.6-0.1c-1,0-2.1,0.1-3.2,0.1V317c0.2-0.1,0.4-0.1,0.6-0.2
	c0.9-0.1,1.7,0.3,1.2,0.5c0.7,0,1.2-0.2,1.4-0.4c0.9,0.3,0.8,0.2,0.9-0.1c0.6,0,1.6,0.7,1.7,0c0.5,0.2,1.7,0.2,2.1,0.4
	c0.7,0,0.2-0.7,0.9-0.3c0-0.7-2.2-0.4-2.1-1c-1-0.1-2.9,0.2-1.9,0.3c-0.7,0.4-3-0.6-3.1,0.1c-0.9,0-2.2-0.5-1.2-0.7
	c-0.2-0.1-0.4-0.1-0.6-0.2v-0.8c-0.1,0-0.2,0.1-0.2,0.1c-1.4-0.2-1.9-0.6-3.4-0.3c0,0.1,0,0.2,0.1,0.2c-0.1-0.1-0.3-0.1-0.4-0.1v1.7
	c-0.3,0-0.6,0-1,0c0.8,0.2-0.7,0.2,0,0.3c-0.2,0-2.7,0.3-2.6-0.3c0,0.1-1,0.1-0.9,0.2c-1-0.2-2.4,0.7-3.4,0c0.2,0.3-1,0.3-1.2,0.6
	c-1.7-0.1-3.3,0-3.3,0.7c-0.2,0-0.2-0.1-0.2-0.2c-0.1-0.2-0.3,0-0.7,0c0-0.8-2.2-0.3-3.3-0.6c-0.4,0-0.4,0.7,0,0.6
	c-0.2,0.5-1.9,0.3-2.9,0.4c0.2,0.1,0.2,0.4,0.7,0.4c0.7-0.1-0.2-0.2,0-0.4c0.5,0.2,1,0.6,1.9,0.3c-0.1,0.4,0.7,0.4,0.7,0.7
	c0.3-0.1,1.1-0.1,1.4,0c-1-0.8,0.8-1.2,0.2-1.6c0.2,0,0.3,0,0.5,0c0.2,0,0.3,0,0.5,0c-0.2,0.3-0.2,0.6,0.5,0.3
	c-0.3,0.2,0.2,1.1-0.5,1.2c0.1,0.3,1.1,0.1,0.7-0.2c0.7,0.1,0.9,0.5,1.4,0.6c0.4-0.5,1.8,0.1,1.9,0.1c-0.6,0.8-4.6-0.2-5.9,0.3
	c1.7,0.8-2.1,1-4.8,0.7c0.8-0.3-0.6-0.1-0.7-0.3c-0.3,0,0,0.2,0.2,0.2c-1,0.3-2.5-0.4-3.6,0.1c0,0.1,0.4,0.1,0.7,0.1
	c-0.1,0.4-1,0.5-2.1,0.4c-0.1-0.2,0.2-0.2,0.2-0.3c-1.7,0-3.7-0.1-5-0.3c0-0.3,0.4-0.3,0.2-0.6c0.6-0.2,1.4-0.2,1.4-0.6
	c-0.5-0.3-1.6-0.2-2.6-0.2c-0.9,0.1-0.3,0.4-0.9,0.5c-0.6,0-1.2,0-1.2-0.2c-0.4,0.2-1.1,0.3-1.4,0.5c-0.3-0.6-1.3-0.8-2.4-1.1
	c-0.1-0.3,0.4-0.3,0-0.5c-0.2,0.2-0.9,0.4-0.7-0.1c-1,0.3-2.7-0.4-3.8,0.3c-0.2-0.1-0.3-0.1-0.5-0.1c-1.5,0.2-3.5,0.2-4.5,0
	c-0.7,0-1,0.2-1.2,0.4c-1.8-0.2-2.8,0.2-2.9,0.7c0.6,0,1.3,0.1,1.4,0.4c0.3,0,0.2-0.2,0.2-0.3c1.1,0.3,1.4,0.3,2.8,0.4
	c-1.4-0.3,0.6-0.2,1.2-0.3c0.2,0.3-0.8,0.2-1,0.3c1.5-0.1,3,0.4,5,0.2c0,0.2,0.6,0.1,0.5,0.4c0.6,0,1.1,0,1.7,0
	c0.2-0.8,3.8,0,3.8-0.6c1.3,0.4,3.9,0.3,3.8,1.4c-0.2,0-0.2-0.1-0.2-0.2c-3.3,0.5-5.6-0.1-8.3-0.4c-0.3,0.1-0.8,0.2-0.7,0.4
	c-1.5-0.2-3.9,0.1-4.8-0.5c-0.9,0-2.7,0.2-2.1-0.1c-1.7,0.1-1.3,0-3.3,0.1c0.9,0.6-3,0.2-3.6-0.1c0.3,0.4-0.8,0.2-2.1,0.4
	c0-0.1,0-0.3,0-0.4c-0.7,0.1-0.3,0.2-0.2,0.4c-0.9,0-1.4,0.2-2.1,0.3c-0.2-0.1-0.5-0.2-0.7-0.3c-0.7,0-0.9,0.2-1.2,0.4
	c1-0.3,2.2,0,2.4,0.9c-0.7,0-1.5,0.1-1.4,0.5c-0.4,0-0.8,0-1.2,0c-0.2-0.3,0.4-0.3,0.5-0.5c-0.5,0.1-0.7,0.3-1,0.5
	c-2.6-0.1-3.2-0.3-5.5,0.3c-2.8-1.1-7.7-0.2-10.2-0.9c-0.2,0.2-0.7,0.3-1.4,0.2c-0.4-0.6-1.6-0.9,0-1.3c1.9,0.4,4.6,0.7,6.7,1
	c0.7-0.1,0.3-0.2,0.2-0.4c0.4,0,1.2-0.1,1,0.2c0.4,0,0.2-0.3,0.9-0.2c-0.1-0.1-0.2-0.2-0.2-0.3c0.7-0.1,0.6,0.2,1,0.2
	c-1.2-0.6-1.8-1-3.8-1.2c0-0.1,0-0.1,0.1-0.2c-0.6,0-1.2,0-1.8-0.1c0,0,0,0,0,0c-1,0.3-2.2-0.1-3.1,0.5c-0.5-0.1-1.3-0.4-0.7-0.6
	c-1.9,0.3-4.6,0.4-5.5,0.5c-0.9-0.4-2.3-0.5-2.9-1.1c-0.7-0.1-0.3,0.4-1.2,0.2c0,0.3,1,0.3-0.2,0.3c0.2,0.1,0.4,0.2,0.7,0.2
	c-0.9,0.3-1.1-0.6-1.7-0.7c-0.9-0.1-1.3,0.3-1.9,0c0.3,0.2,0.3,0.3,0,0.4c0.6,0.1,1-0.3,1,0.1c-0.4,0-0.8,0-1.2,0
	c0.8,0.4,1.7,1,3.6,0.9c0.2,0.2,0.7,0.3,0.5,0.6c1.3-0.1,5.2,0,6.2,0.7c-1.2-0.2-1.3,0.2-2.4-0.1c-0.5,0,0.3,0.3-0.2,0.4
	c-0.5-0.4-0.9,0-1.4,0c-2.7,0-5.1-0.4-7.4-1c0.3-0.5-0.9-0.2-0.7-0.6c-0.1,0.1-0.8,0.9-0.2,1.1c-1.1-0.1-2.6,0.3-4.3-0.1
	c-0.4,0.6-2.6,0.2-3.8,0.2c0,0.1,0.3,0.1,0.5,0.1c-3.4,0.4-10.2-0.7-15.2,0.2c-0.3,0.5,0.5,0.5,1,0.6c-0.9,0.9-2.8,0.5-4.3,0.9
	c-2.4-0.5-4.9,0.6-8.1,0.4c-0.1,0.3,0.9,0.1,0.7,0.4c-0.5,0.2-1.1-0.1-2.1,0c-0.4-0.6-0.7-1-0.5-1.6c-2.3-0.7-4-1.7-2.4-2.9
	c-0.2-1.3-5.7-1.1-7.4-1.1c0.1,0.1,0.2,0.2,0.5,0.2c-0.5,0.3-2.1,0.1-1.9,0.7c-1.3,0.2-1-0.3-1.9-0.3c0.2-0.3,0.8-0.5,0-0.7
	c1-0.1,2.2-0.1,3.3,0c-0.8-0.4,1-0.5,1.9-0.7c-0.1-0.6-0.1-0.9,0.7-1.1c-0.3-0.3-0.7-0.6-1.3-0.7c-0.1,0.1-0.1,0.2,0,0.4
	c-0.2,0.3-1,0-0.8,0.5c-0.4-0.2-0.7,0-0.7-0.3c-0.9-0.2-1.6,0.1-2.5,0.1c-1.7,0-3.2-0.8-4.7-1c-1-0.1-1.9,0.2-3.1,0.1
	c0.3,0-0.8-0.3-1-0.1c-0.2,0,0,0.1,0,0.3c-1.2,0.2-2.7,0.3-3.7,0c-1.2,0.6-1.8-0.7-3.3,0c0.1,0.5-0.2,0.5,0,0.9
	c-1,0.2-2-0.4-2.3,0.2c-0.4-0.2-1-0.3-1,0.3c-0.6,0-0.6-0.2-1.1-0.2c-0.3,0.5-0.7,0.1-1.1,0.4c-0.7-1.9-4.5,0-5.4-1.6
	c0.4,0.1,0.4,0,1.3-0.3c0-0.9-1.1-0.8-1.8-1c-0.2,0-0.1,0.3-0.1,0.4c-0.3-0.4-1-0.1-1.8-0.1c-2.2-0.1-5.6-0.4-8.1-0.7
	c-0.6-0.1-1.2-0.1-1.6-0.1c-0.2,0-0.3,0.2-0.4,0.2c-0.4,0-1.6-0.3-2.3-0.2c-0.5-0.5-1.4-1.4-2.9-1.3c-0.7,0.8-1.3,0.8-2.3,0.9
	c0.5,0.1,0.3,0.7,0.7,0.3c0.4,0-0.2,0.5,0.1,0.4c-0.2,0.5-0.7,0-0.7,0.6c-1.1,0-1.4-0.1-2.3,0.4c0-0.2-0.5-0.5-0.1-0.6
	c-0.4,0.1-0.5-0.6-1.2-0.5c0.1-0.3,0-0.3,0.1-0.5c0.2,0.1,0.4,0.4,0.7,0.4c0.2-0.1,0.3-0.3,0.2-0.6c-0.2-0.3-1.1,0.1-1.3-0.2
	c-0.1,0.3,0.2,0.3,0.1,0.5c-1.8-0.1-5.4-1-7,0.4c-1,0.1-1.7,0.4-2.4,0.6c-1.4-0.2-1.9-0.6-3.4-0.3c0,0.1,0,0.2,0.1,0.2
	c-0.7-0.4-1.3,0.5-2.8,0.3c-0.1,0.1-0.6,0.4-0.4,0.4c-0.5,0.4-1.7,0.9-1.9-0.1c-0.7-0.1-0.9,0-1.6-0.2c-0.1,0.5,0.3,0.6,0.4,1
	c0.3-0.2,0.6,0.2,0.7-0.2c0.3,0,0.1,0.4,0.1,0.5c-1.7-0.2-3.1,0.1-4.8,0.1c-0.4-0.1-1.3-0.3-1.9-0.3c-0.1,0-0.3,0.2-0.2,0.2
	c-0.8-0.2-1.2-0.6-2.3-0.9c-1.2-0.2-2.7-0.2-3.9-0.9c0,0-0.1,0-0.1,0v1c-0.7-0.1-1.4-0.1-2.1-0.2c-0.4,0-0.1,0.4-0.5,0.4
	c-0.7-0.3-1.6-0.2-2.5-0.2c-0.1,0.5-1.5,0.6-2,1c0,0-0.1,0-0.1,0c-0.2,0.3,0.5,0.2,1,0.2c0,0.3,0.4,0.2,0,0.4c0.7,0.1,1.1-0.1,1-0.4
	c1.7,0.1,3-0.1,4.5-0.1c0,0.2,0,0.4,0,0.5c-2.8,0.3-6.2,0.1-7.4,0.7c-0.5,0.1-0.3-0.2-0.7-0.2c-1.3,0.4-2.4,0.4-3.6,1
	c-0.8-0.2-2.6,0-2.8-0.4c-0.8-0.1-0.3,0.4-1.2,0.3c-0.1-0.2,0.2-0.3,0.2-0.4c-1.7,0.1-3.3-0.5-6.4-0.3c-1,0.5-4.5,0.6-5.9,0.3
	c-0.7,0-1,0.2-1.2,0.4c-2.4-0.2-3.4,0.5-2.6,1.3c-2.3,0.2-3.9-0.7-5.9-0.3c0,0.2,0,0.4,0,0.6c-0.9-0.2-1.6,0.1-2.9,0
	c-0.2-0.1-0.4-0.3-0.7-0.4c-2.3,0.3-8.2,0.3-12.6,0.3c-3.1,0-5.8-0.5-7.4-1.1c0.1-0.6-0.1-0.8,0.5-1.1c-0.9,0-2.1,0.1-2.9-0.3
	c-0.3,0-0.2,0.2-0.2,0.3c-3-0.6-3.5,1.1-6.4,0.9c0.8,0.5-1.8-0.1-1.9,0.5c-2.7-0.4-5.9-0.3-9-0.2c-0.8,0.7-1.6,1.6-1.3,2.7
	c-0.5,0.5-1.4,0.1-2,0.5c0,0.3,0.5-0.1,0.4,0.3c-0.4-0.1-0.9,0.6-1.4,0.9c-1-0.3-1.7-0.3-2.4,0.1c-2.1-0.2-3.4-1.5-5.4-2
	c-0.3,0,0.2,0.2,0,0.4c-1.6-0.4-3.2-0.3-4.2-0.7c-0.3,0.5-0.8-0.2-1.2-0.3c-0.8,0.5-2.2,0.1-2.8,0.5c-0.6-0.5-1.5,0.2-1.8-0.5
	c-0.1,0.4-0.6,0.3-1.1,0.3c0.1-0.9-1.2,0.3-1.2-0.4c-0.2,0.6-1-0.1-1.1,0.3c-0.6-0.4-2.1,0.4-2.7-0.2c-0.3,0.1-1,0.5-1.1-0.1
	c-0.4-0.1-0.3,0.4-0.7,0.3c-0.7-0.3-1.3-0.4-2.2-0.2c-0.2,0,0-0.1,0-0.2c-0.5,0.3-0.6-0.1-1.1-0.1c-0.2,0-0.1,0.4-0.2,0.4
	c-0.6-0.2-0.8,0-1.3-0.3c-1,0.5-2.1-0.3-2.9,0.1c-0.4,0-0.4-0.2-0.6-0.3c-0.1,0-0.1,0.1,0,0.1c-1,0.5-2.2,0-3.4,0
	c-0.7,0-1.4,0.3-2.1,0.3c-0.8,0-2.1-0.4-2.9-0.5c-0.6-0.1-1.3,0.2-2.1,0.2c-0.7,0-1.3-0.4-1.9-0.4c-0.3,0-1,0.1-1.6,0.1
	c-0.6,0-1.1-0.1-1.3,0.3c-0.5-0.9-1.9,0.4-2.3-0.4c-0.5-0.1-0.6,0.2-1,0.2c0-0.2-0.1-0.2-0.1-0.3c-0.1,0.2-0.4,0.2-0.8,0.2
	c0.1-0.4-0.3-0.3-0.2-0.6c-0.2,0-0.2,0.2-0.4,0.2c0.1,0.2,0.1,0.4,0.5,0.3c-0.1,0.1-0.3,0.1-0.2,0.3c-1.1-1.1-2.5-0.3-3.3-0.1
	c-1.7-0.2-2.9-0.5-5.1,0c0-0.2-0.1-0.2-0.1-0.3c-1.3,0-3.2,0.1-4.9-0.2c-0.4,0-0.8-0.1-1.2-0.1c-0.1,0.1-0.1,0.2-0.2,0.3
	c-0.3-0.2-1,0.1-1-0.4c-1.4,0.1-4.2,0.4-5.7,0c-0.1,0-0.1,0-0.2,0c-3.1,0.4-6.2,0.4-9-0.1c-0.5,0.5-1.2,0.1-1.9,0.4
	c0-0.1,0-0.2,0-0.3c-1.3,0-2.6,0-3.5,0.3c0,0-0.1-0.1-0.1-0.1c-0.1,0-0.2,0-0.3,0.1c-0.2-0.1-0.5-0.2-0.7-0.3c0,0,0,0,0,0
	c-0.7,0-0.9,0.2-1.2,0.4c1-0.3,2.2,0,2.4,0.9c-0.7,0-1.5,0.1-1.4,0.5c-0.4,0-0.8,0-1.2,0c-0.2-0.3,0.4-0.3,0.5-0.5
	c-0.5,0.1-0.7,0.3-1,0.5c-2.6-0.1-3.2-0.3-5.5,0.3c-2.8-1.1-7.7-0.2-10.2-0.9c-0.2,0.2-0.7,0.3-1.4,0.2c-0.4-0.6-1.6-0.9,0-1.3
	c1.9,0.4,4.6,0.7,6.7,1c0.7-0.1,0.3-0.2,0.2-0.4c0.4,0,1.2-0.1,1,0.2c0.4,0,0.2-0.3,0.9-0.2c-0.1-0.1-0.2-0.2-0.2-0.3
	c0.7-0.1,0.6,0.2,1,0.2c-1.2-0.6-1.8-1-3.8-1.2c0,0,0,0,0-0.1c-0.3,0-0.5,0-0.8,0c-0.3-0.1-0.6-0.2-1-0.2c0.1,0,0.1,0,0.2,0
	c-1,0.3-2.2-0.1-3.1,0.5c-0.5-0.1-1.3-0.4-0.7-0.6c-1.9,0.3-4.6,0.4-5.5,0.5c-0.9-0.4-2.3-0.5-2.9-1.1c-0.7-0.1-0.3,0.4-1.2,0.2
	c0,0.3,1,0.3-0.2,0.3c0.2,0.1,0.4,0.2,0.7,0.2c-0.9,0.3-1.1-0.6-1.7-0.7c-0.9-0.1-1.3,0.3-1.9,0c0.3,0.2,0.3,0.3,0,0.4
	c0.6,0.1,1-0.3,1,0.1c-0.4,0-0.8,0-1.2,0c0.8,0.4,1.7,1,3.6,0.9c0.2,0.2,0.7,0.3,0.5,0.6c1.3-0.1,5.2,0,6.2,0.7
	c-1.2-0.2-1.3,0.2-2.4-0.1c-0.5,0,0.3,0.3-0.2,0.4c-0.5-0.4-0.9,0-1.4,0c-2.7,0-5.1-0.4-7.4-1c0.3-0.5-0.9-0.2-0.7-0.6
	c-0.1,0.1-0.8,0.9-0.2,1.1c-1.1-0.1-2.6,0.3-4.3-0.1c-0.4,0.6-2.6,0.2-3.8,0.2c0,0.1,0.3,0.1,0.5,0.1c-3.4,0.4-10.2-0.7-15.2,0.2
	c-0.3,0.5,0.5,0.5,1,0.6c-0.9,0.9-2.8,0.5-4.3,0.9c-2.4-0.5-4.9,0.6-8.1,0.4c-0.1,0.3,0.9,0.1,0.7,0.4c-0.5,0.2-1.1-0.1-2.1,0
	c-0.4-0.6-0.7-1-0.5-1.6c-2.3-0.7-4-1.7-2.4-2.9c-0.2-1.3-5.7-1.1-7.4-1.1c0.1,0.1,0.2,0.2,0.5,0.2c-0.5,0.3-2.1,0.1-1.9,0.7
	c-1.3,0.2-1-0.3-1.9-0.3c0.2-0.3,0.8-0.5,0-0.7c1-0.1,2.2-0.1,3.3,0c-0.8-0.4,1-0.5,1.9-0.7c-0.1-0.6-0.1-0.9,0.7-1.1
	c-0.3-0.3-0.7-0.6-1.3-0.7c-0.1,0.1-0.1,0.2,0,0.4c-0.2,0.3-1,0-0.8,0.5c-0.4-0.2-0.7,0-0.7-0.3c-0.9-0.2-1.6,0.1-2.5,0.1
	c-1.2,0-2.4-0.4-3.5-0.7c-0.4,0-0.8,0.2-1.1,0.5c-1.4-0.2-3.5,0.2-4.5-0.4c-0.6,0.1-1.3,0.1-1.9,0.1c-0.1,0.1-0.2,0.1-0.3,0.2
	c-1.6-0.3-3.2,0-4.6-0.1c0,0.2-0.1,0.3,0,0.5c-1,0.2-2-0.4-2.3,0.2c-0.4-0.2-1-0.3-1,0.3c-0.6,0-0.6-0.2-1.1-0.2
	c-0.3,0.5-0.7,0.1-1.1,0.4c-0.3-0.7-1-0.9-1.9-0.9c0,0,0,0,0,0c0,0-0.1,0-0.1,0c-1.2,0-2.6,0.2-3.3-0.5c-3.6,0-7.1,0.1-11.1-0.3
	c-0.5,0.1,0.3,0.2-0.2,0.3c-1.6,0-3,0.3-4.3-0.3c0.2,0.2-1.5,0.3-1.7,0c-0.8,0.5-2.4,0.1-3.8,0.3c0-0.1,0-0.3,0-0.4
	c-2.2,0.5-4.9,0.5-7.4,0.6c0-0.2,0.3-0.2,0.2-0.4c-1.7,0.4-7.1,0.5-7.6-0.1c-0.6,0-0.6,0.3-0.9,0.4c-0.9,0.1-0.6-0.3-1-0.4
	c-0.3,0-0.1,0.1,0,0.1c-1.3,0.1-2.6,0.2-4,0.2c0,0.1-0.1,0.3,0,0.4c-1.7-0.2-3.1,0.1-4.8,0.1c-0.4-0.1-1.3-0.3-1.9-0.3
	c-0.1,0-0.3,0.2-0.2,0.2c-0.8-0.2-1.2-0.6-2.3-0.9c-1.2-0.2-2.7-0.2-3.9-0.9c-0.3,0.1-0.7,0.2-0.6,0.6c-1.5,0.1-3.1,0-4.7,0.1
	c0.6,0.8-1.3,0.8-1.9,1.4c0,0-0.1,0-0.1,0c-0.2,0.3,0.5,0.2,1,0.2c0,0.3,0.4,0.2,0,0.4c0.7,0.1,1.1-0.1,1-0.4c1.7,0.1,3-0.1,4.5-0.1
	c0,0.2,0,0.4,0,0.5c-2.8,0.3-6.2,0.1-7.4,0.7c-0.5,0.1-0.3-0.2-0.7-0.2c-1.3,0.4-2.4,0.4-3.6,1c-0.8-0.2-2.6,0-2.8-0.4
	c-0.8-0.1-0.3,0.4-1.2,0.3c-0.1-0.2,0.2-0.3,0.2-0.4c-1.7,0.1-3.3-0.5-6.4-0.3c-1,0.5-4.5,0.6-5.9,0.3c-0.7,0-1,0.2-1.2,0.4
	c-2.4-0.2-3.4,0.5-2.6,1.3c-2.3,0.2-3.9-0.7-5.9-0.3c0,0.2,0,0.4,0,0.6c-0.9-0.2-1.6,0.1-2.9,0c-0.2-0.1-0.4-0.3-0.7-0.4
	c-2.3,0.3-8.2,0.3-12.6,0.3c-3.1,0-5.8-0.5-7.4-1.1c0.1-0.6-0.1-0.8,0.5-1.1c-0.9,0-2.1,0.1-2.9-0.3c-0.3,0-0.2,0.2-0.2,0.3
	c-3-0.6-3.5,1.1-6.4,0.9c0.8,0.5-1.8-0.1-1.9,0.5c-5.4-0.8-12.5,0.4-18.3-0.4c-0.3-0.6-0.9-1-1.8-1.3h-2.2c-1.6,0.1-3-0.2-4.1,0.3
	c-0.9,0-2.3-0.2-3.6-0.3H6.6c-0.2,0.1-0.4,0.1-0.5,0.2c-1,0-2.1,0.1-3.2,0.1v-1.5c0.2-0.1,0.3-0.1,0.5-0.2c0-0.2,0-0.5,0-0.7
	c-0.3-0.1-0.4-0.3,0-0.4c0,0,0,0,0-0.1c-0.2-0.1-0.4-0.1-0.6-0.1v-3c0.2,0,0.4,0,0.6,0c0-0.1,0-0.2,0-0.3H2.4v-22.6
	c-0.1-0.2-0.2-0.3-0.3-0.2c0-0.4,0-0.8,0-1.2c0.2-0.1,0.2,0,0.3,0.1v-0.2c-0.1-0.2-0.2-0.3-0.3-0.4c0.1-2.7,0.3-3.3-0.3-5.7
	c0.8-2.4,0.5-6.1,0.6-8.8v-1.7h0.2c0,0,0-0.1,0-0.1c-0.2-0.2-0.3-0.7-0.2-1.5c0.6-0.4,0.9-1.6,1.2,0c-0.1,0.5-0.2,1-0.3,1.6h0.9
	c-0.1-0.2-0.1-0.4-0.3-0.6c0.1-0.5,0.4-1.3,0.6-0.7c-0.3-2-0.3-4.8-0.5-5.7c0.4-0.9,0.5-2.4,1-3c0.1-0.8-0.4-0.3-0.2-1.2
	c-0.3,0-0.3,1.1-0.3-0.2c-0.1,0.2-0.2,0.4-0.2,0.7c-0.3-0.9,0.5-1.2,0.7-1.7c0.1-0.9-0.3-1.4,0-2c-0.2,0.3-0.3,0.3-0.4,0
	c-0.1,0.6,0.3,1.1-0.1,1c0-0.4,0-0.8,0-1.2c-0.4,0.9-1,1.8-0.8,3.7c-0.2,0.2-0.3,0.7-0.6,0.5c0.1,1.4,0,5.4-0.7,6.4
	c0.2-1.2-0.2-1.3,0.1-2.5c0-0.5-0.3,0.4-0.4-0.2c0.3-0.5,0-0.9,0-1.5c0-2.7,0.4-5.3,0.9-7.6c0.4,0.3,0.2-1,0.6-0.7
	c-0.1-0.1-0.9-0.9-1-0.2c0.1-1.2-0.3-2.7,0.1-4.4c-0.6-0.4-0.2-2.7-0.2-3.9c-0.1,0-0.1,0.3-0.1,0.5c-0.3-3.5,0.6-10.6-0.2-15.8
	c-0.5-0.3-0.5,0.6-0.6,1c-0.9-0.9-0.5-2.9-0.8-4.4c0.5-2.5-0.5-5.1-0.4-8.4c-0.3-0.1-0.1,1-0.4,0.7c-0.2-0.5,0.1-1.2,0-2.2
	c0.6-0.5,1-0.7,1.5-0.5c0.7-2.4,1.6-4.2,2.8-2.5c1.3-0.2,1.1-5.9,1-7.6c-0.1,0.1-0.2,0.2-0.2,0.5c-0.3-0.6-0.1-2.2-0.7-2
	c-0.2-1.3,0.3-1.1,0.3-2c0.3,0.2,0.5,0.9,0.7,0c0.1,1,0.1,2.2,0,3.5c0.4-0.9,0.5,1,0.7,2c0.6-0.1,0.8-0.1,1,0.7
	c0.3-0.3,0.5-0.7,0.7-1.4c-0.1-0.1-0.2-0.1-0.4,0c-0.3-0.2,0-1-0.5-0.9c0.2-0.4,0-0.7,0.3-0.8c0.2-1-0.1-1.7-0.1-2.6
	c0-1.3,0.4-2.5,0.7-3.6c0-0.4-0.2-0.8-0.5-1.1c0.2-1.5-0.2-3.7,0.3-4.7c-0.1-0.6-0.1-1.3-0.1-2c-0.1-0.1-0.1-0.2-0.2-0.3
	c0.3-1.7,0-3.3,0.1-4.7c-0.2,0-0.3-0.1-0.5,0c-0.2-1,0.3-2.1-0.2-2.4c0.2-0.4,0.3-1-0.3-1c0-0.7,0.2-0.7,0.2-1.1
	c-0.5-0.3-0.1-0.8-0.4-1.1c0.7-0.3,0.9-1,0.9-1.9c0,0,0,0,0,0c0,0,0-0.1,0-0.1c0-1.3-0.2-2.7,0.4-3.4c0-3.8-0.1-7.4,0.3-11.5
	c-0.1-0.6-0.2,0.3-0.3-0.2c0-1.7-0.2-3.1,0.3-4.4c-0.2,0.2-0.3-1.6,0-1.7c-0.5-0.9-0.1-2.5-0.3-3.9c0.1,0,0.3,0,0.4,0
	c-0.5-2.3-0.5-5.1-0.6-7.6c0.2,0,0.2,0.3,0.4,0.2c-0.4-1.8-0.5-7.4,0.1-7.9c0-0.7-0.3-0.6-0.4-1c-0.1-1,0.3-0.6,0.4-1
	c0-0.3-0.1-0.1-0.1,0c-0.1-1.3-0.2-2.7-0.2-4.2c-0.1,0-0.3-0.1-0.4,0c0.1-1.7-0.1-3.3-0.1-5c0.1-0.5,0.3-1.3,0.3-2
	c0-0.1-0.2-0.3-0.2-0.3c0.2-0.9,0.6-1.2,0.8-2.4c0.2-1.3,0.2-2.8,0.8-4c-0.1-0.4-0.2-0.7-0.6-0.6c-0.1-1.6,0-3.3-0.1-4.9
	c-0.8,0.6-0.8-1.3-1.3-2c0,0,0-0.1,0-0.1c-0.3-0.2-0.2,0.5-0.2,1c-0.3,0-0.2,0.4-0.4,0c0,0.8,0.1,1.1,0.4,1
	c-0.1,1.8,0.1,3.1,0.1,4.7c-0.2,0-0.3,0-0.5,0c-0.2-2.9-0.1-6.5-0.7-7.6c-0.1-0.5,0.2-0.3,0.2-0.7c-0.4-1.3-0.4-2.5-0.9-3.7
	c0.2-0.8,0-2.7,0.4-3c0.1-0.8-0.4-0.3-0.3-1.2c0.2-0.1,0.3,0.2,0.4,0.2c-0.1-1.8,0.5-3.5,0.3-6.7C5.1,95.6,5,92,5.3,90.5
	c0-0.7-0.2-1-0.4-1.2c0.2-2.5-0.5-3.5-1.2-2.7c-0.2-2.4,0.6-4.1,0.3-6.2c-0.2,0-0.4,0-0.6,0c0.2-1-0.1-1.7,0-3
	c0.1-0.2,0.3-0.4,0.4-0.7c-0.3-2.4-0.3-8.5-0.3-13.1c0-3.3,0.5-6,1-7.6c0.6,0.2,0.7-0.1,1,0.5c0-1-0.1-2.2,0.3-3
	c0-0.3-0.2-0.2-0.3-0.2c0.5-3.1-1.1-3.7-0.8-6.7c-0.5,0.9,0.1-1.9-0.5-2c0.7-5.6-0.4-13,0.4-19c0.8-0.4,1.3-1.7,1.6-3.2
	c-0.1-0.6-0.2,0.3-0.3-0.2c-0.3-2,0.1-3.6-0.4-4.9c0-2.1,1-6.6,0.1-7.9c0-1.1-0.1-2.2-0.1-3.4h0.9V5.9h1.9C8.5,6,8.7,6,8.9,6.1h2.4
	c0,0.1,0,0.2,0,0.3c0.1,0,0.2,0,0.3,0V5.7h4.8c0-0.1,0.1-0.1,0-0.2c0.9-0.1,1.1,0.1,1.4,0.2h5.4c0.7-0.3,3.1-0.3,5-0.2
	c-0.3,0.1-0.3,0.2-0.2,0.2h0.9c-0.1,0-0.2-0.1-0.3-0.1c0.6-0.2,1.4,0,2.1,0.1h0.8c0.2,0,0.5-0.1,0.7-0.2c0-0.1-0.4-0.1-0.7-0.1
	c0.1-0.4,1-0.5,2.1-0.4c0.1,0.2-0.2,0.2-0.2,0.3c1.7,0,3.7,0.1,5,0.3c0,0,0,0,0,0.1h2.3c-0.8-0.2-1.4-0.4-1.3-0.9
	c0.2,0,0.2,0.1,0.2,0.2c3.3-0.5,5.6,0.1,8.3,0.4c0.3-0.1,0.8-0.2,0.7-0.4c1.5,0.2,3.9-0.1,4.8,0.5c0.9,0,2.7-0.2,2.1,0.1
	c1.7-0.1,1.3,0,3.3-0.1c-0.9-0.6,3-0.2,3.6,0.1c-0.3-0.4,0.8-0.2,2.1-0.4c0,0.1,0,0.3,0,0.4c0.7-0.1,0.3-0.2,0.2-0.4
	c0.9,0,1.4-0.2,2.1-0.3c0.2,0.1,0.5,0.2,0.7,0.3c0.7,0,0.9-0.2,1.2-0.4c-1,0.3-2.2,0-2.4-0.9c0.7,0,1.5-0.1,1.4-0.5
	c0.4,0,0.8,0,1.2,0c0.2,0.3-0.4,0.3-0.5,0.5c0.5-0.1,0.7-0.3,1-0.5c2.6,0.1,3.2,0.3,5.5-0.3c2.8,1.1,7.7,0.2,10.2,0.9
	c0.2-0.2,0.7-0.3,1.4-0.2c0.4,0.6,1.6,0.9,0,1.3c-1.9-0.4-4.6-0.7-6.7-1c-0.7,0.1-0.3,0.2-0.2,0.4c-0.4,0-1.2,0.1-1-0.2
	c-0.4,0-0.2,0.3-0.9,0.2c0.1,0.1,0.2,0.2,0.2,0.3c-0.7,0.1-0.6-0.2-1-0.2c1.2,0.6,1.8,1,3.8,1.2c0.1,0.2-0.2,0.2-0.2,0.3
	c1.3-0.4,1.1,0.4,2.6,0.3c0-0.3-0.4-0.3-0.7-0.4c1-0.3,2.2,0.1,3.1-0.5c0.5,0.1,1.3,0.4,0.7,0.6c1.9-0.3,4.6-0.4,5.5-0.5
	c0.9,0.4,2.3,0.5,2.9,1.1c0.7,0.1,0.3-0.4,1.2-0.2C96.1,6,95,6,96.3,6c-0.2-0.1-0.4-0.2-0.7-0.2c0.9-0.3,1.1,0.6,1.7,0.7
	c0.9,0.1,1.3-0.3,1.9,0c-0.3-0.2-0.3-0.3,0-0.4c-0.6-0.1-1,0.3-1-0.1c0.4,0,0.8,0,1.2,0c-0.8-0.4-1.7-1-3.6-0.9
	c-0.2-0.2-0.7-0.3-0.5-0.6c-1.3,0.1-5.2,0-6.2-0.7c1.2,0.2,1.3-0.2,2.4,0.1c0.5,0-0.3-0.3,0.2-0.4c0.5,0.4,0.9,0,1.4,0
	c2.7,0,5.1,0.4,7.4,1c-0.3,0.5,0.9,0.2,0.7,0.6c0.1-0.1,0.8-0.9,0.2-1.1c1.1,0.1,2.6-0.3,4.3,0.1c0.4-0.6,2.6-0.2,3.8-0.2
	c0-0.1-0.3-0.1-0.5-0.1c3.4-0.4,10.2,0.7,15.2-0.2c0.3-0.5-0.5-0.5-1-0.6c0.9-0.9,2.8-0.5,4.3-0.9c2.4,0.5,4.9-0.6,8.1-0.4
	c0.1-0.3-0.9-0.1-0.7-0.4c0.5-0.2,1.1,0.1,2.1,0c0.4,0.6,0.7,1,0.5,1.6c1.3,0.4,2.4,0.9,2.8,1.4c0.1,0,0.1,0,0.2,0
	c0.2,0.1,0.4,0.3,0.7,0.4c2.3-0.3,8.2-0.3,12.6-0.3c3.1,0,5.8,0.5,7.4,1.1c-0.2,0.6,0.1,0.8-0.5,1.1c0.9,0,2.1-0.1,2.9,0.3
	c0.3,0,0.2-0.2,0.2-0.3c3,0.6,3.5-1.1,6.4-0.9c-0.8-0.5,1.8,0.1,1.9-0.5c5.4,0.8,12.5-0.4,18.3,0.4c0.4,0.9,1.6,1.3,3.1,1.7
	c0.5-0.1-0.3-0.2,0.2-0.3c1.9-0.3,3.5,0.1,4.8-0.4c2,0,6.4,1.1,7.6,0.1c1,0,2.1-0.1,3.2-0.1V8c-0.2,0.1-0.4,0.1-0.6,0.2
	c-0.9,0.1-1.7-0.3-1.2-0.5c-0.7,0-1.2,0.2-1.4,0.4c-0.9-0.3-0.8-0.2-0.9,0.1c-0.6,0-1.6-0.7-1.7,0c-0.5-0.2-1.7-0.2-2.1-0.4
	c-0.7,0-0.2,0.7-0.9,0.3c0,0.7,2.2,0.4,2.1,1c1,0.1,2.9-0.2,1.9-0.3c0.7-0.4,3,0.6,3.1-0.1c0.9,0,2.2,0.5,1.2,0.7
	c0.2,0.1,0.4,0.1,0.6,0.2v0.8c0.1,0,0.2-0.1,0.2-0.1c1.4,0.2,1.9,0.6,3.4,0.3c0-0.1,0-0.2-0.1-0.2c0.1,0.1,0.3,0.1,0.4,0.1V8.8
	c0.3,0,0.6,0,1,0c-0.8-0.2,0.7-0.2,0-0.3c0.2,0,2.7-0.3,2.6,0.3c0-0.1,1-0.1,0.9-0.2c1,0.2,2.4-0.7,3.4,0c-0.2-0.3,1-0.3,1.2-0.6
	c1.7,0.1,3.3,0,3.3-0.7c0.2,0,0.2,0.1,0.2,0.2c0.1,0.2,0.3,0,0.7,0c0,0.8,2.2,0.3,3.3,0.6c0.4,0,0.4-0.7,0-0.6
	c0.2-0.5,1.9-0.3,2.9-0.4c-0.2-0.1-0.2-0.4-0.7-0.4c-0.7,0.1,0.2,0.2,0,0.4c-0.5-0.2-1-0.6-1.9-0.3c0.1-0.4-0.7-0.4-0.7-0.7
	c-0.3,0.1-1.1,0.1-1.4,0c1,0.8-0.8,1.2-0.2,1.6c-0.2,0-0.3,0-0.5,0c-0.2,0-0.3,0-0.5,0c0.2-0.3,0.2-0.6-0.5-0.3
	c0.3-0.2-0.2-1.1,0.5-1.2c-0.1-0.3-1.1-0.1-0.7,0.2c-0.7-0.1-0.9-0.5-1.4-0.6c-0.4,0.5-1.8-0.1-1.9-0.1c0.6-0.8,4.6,0.2,5.9-0.3
	c-1.7-0.8,2.1-1,4.8-0.7c-0.8,0.3,0.6,0.1,0.7,0.3c0.3,0,0-0.2-0.2-0.2c1-0.3,2.5,0.4,3.6-0.1c0-0.1-0.4-0.1-0.7-0.1
	c0.1-0.4,1-0.5,2.1-0.4c0.1,0.2-0.2,0.2-0.2,0.3c1.7,0,3.7,0.1,5,0.3c0,0.3-0.4,0.3-0.2,0.6c-0.6,0.2-1.4,0.2-1.4,0.6
	c0.5,0.3,1.6,0.2,2.6,0.2c0.9-0.1,0.3-0.4,0.9-0.5c0.6,0,1.2,0,1.2,0.2c0.4-0.2,1.1-0.3,1.4-0.5c0.3,0.6,1.3,0.8,2.4,1.1
	c0.1,0.3-0.4,0.3,0,0.5c0.2-0.2,0.9-0.4,0.7,0.1c1-0.3,2.7,0.4,3.8-0.3c0.2,0.1,0.3,0.1,0.5,0.1c1.5-0.2,3.5-0.2,4.5,0
	c0.7,0,1-0.2,1.2-0.4c1.8,0.2,2.8-0.2,2.9-0.7c-0.6,0-1.3-0.1-1.4-0.4c-0.3,0-0.2,0.2-0.2,0.3c-1.1-0.3-1.4-0.3-2.8-0.4
	c1.4,0.3-0.6,0.2-1.2,0.3c-0.2-0.3,0.8-0.2,1-0.3c-1.5,0.1-3-0.4-5-0.2c0-0.2-0.6-0.1-0.5-0.4c-0.6,0-1.1,0-1.7,0
	c-0.2,0.8-3.8,0-3.8,0.6c-1.3-0.4-3.9-0.3-3.8-1.4c0.2,0,0.2,0.1,0.2,0.2c3.3-0.5,5.6,0.1,8.3,0.4c0.3-0.1,0.8-0.2,0.7-0.4
	c1.5,0.2,3.9-0.1,4.8,0.5c0.9,0,2.7-0.2,2.1,0.1c1.7-0.1,1.3,0,3.3-0.1c-0.9-0.6,3-0.2,3.6,0.1C267.5,4,268.7,4.2,270,4
	c0,0.1,0,0.3,0,0.4c0.7-0.1,0.3-0.2,0.2-0.4c0.9,0,1.4-0.2,2.1-0.3c0.2,0.1,0.5,0.2,0.7,0.3c0.7,0,0.9-0.2,1.2-0.4
	c-1,0.3-2.2,0-2.4-0.9c0.7,0,1.5-0.1,1.4-0.5c0.4,0,0.8,0,1.2,0c0.2,0.3-0.4,0.3-0.5,0.5c0.5-0.1,0.7-0.3,1-0.5
	c2.6,0.1,3.2,0.3,5.5-0.3c2.8,1.1,7.7,0.2,10.2,0.9c0.2-0.2,0.7-0.3,1.4-0.2c0.4,0.6,1.6,0.9,0,1.3c-1.9-0.4-4.6-0.7-6.7-1
	c-0.7,0.1-0.3,0.2-0.2,0.4c-0.4,0-1.2,0.1-1-0.2c-0.4,0-0.2,0.3-0.9,0.2c0.1,0.1,0.2,0.2,0.2,0.3c-0.7,0.1-0.6-0.2-1-0.2
	c1.2,0.6,1.8,1,3.8,1.2c0,0.1,0,0.1-0.1,0.2c0.6,0,1.2,0,1.8,0.1c0,0,0,0,0,0c1-0.3,2.2,0.1,3.1-0.5c0.5,0.1,1.3,0.4,0.7,0.6
	c1.9-0.3,4.6-0.4,5.5-0.5c0.9,0.4,2.3,0.5,2.9,1.1c0.7,0.1,0.3-0.4,1.2-0.2c0-0.3-1-0.3,0.2-0.3c-0.2-0.1-0.4-0.2-0.7-0.2
	c0.9-0.3,1.1,0.6,1.7,0.7c0.9,0.1,1.3-0.3,1.9,0c-0.3-0.2-0.3-0.3,0-0.4c-0.6-0.1-1,0.3-1-0.1c0.4,0,0.8,0,1.2,0
	c-0.8-0.4-1.7-1-3.6-0.9c-0.2-0.2-0.7-0.3-0.5-0.6c-1.3,0.1-5.2,0-6.2-0.7c1.2,0.2,1.3-0.2,2.4,0.1c0.5,0-0.3-0.3,0.2-0.4
	c0.5,0.4,0.9,0,1.4,0c2.7,0,5.1,0.4,7.4,1c-0.3,0.5,0.9,0.2,0.7,0.6c0.1-0.1,0.8-0.9,0.2-1.1c1.1,0.1,2.6-0.3,4.3,0.1
	c0.4-0.6,2.6-0.2,3.8-0.2c0-0.1-0.3-0.1-0.5-0.1c3.4-0.4,10.2,0.7,15.2-0.2c0.3-0.5-0.5-0.5-1-0.6c0.9-0.9,2.8-0.5,4.3-0.9
	c2.4,0.5,4.9-0.6,8.1-0.4c0.1-0.3-0.9-0.1-0.7-0.4c0.5-0.2,1.1,0.1,2.1,0c0.4,0.6,0.7,1,0.5,1.6c2.3,0.7,4,1.7,2.4,2.9
	c0.2,1.3,5.7,1.1,7.4,1.1c-0.1-0.1-0.2-0.2-0.5-0.2c0.5-0.3,2.1-0.1,1.9-0.7c1.3-0.2,1,0.3,1.9,0.3c-0.2,0.3-0.8,0.5,0,0.7
	c-1,0.1-2.2,0.1-3.3,0c0.8,0.4-1,0.5-1.9,0.7c0.1,0.6,0.1,0.9-0.7,1.1c0.3,0.3,0.7,0.6,1.3,0.7c0.1-0.1,0.1-0.2,0-0.4
	c0.2-0.3,1,0,0.8-0.5c0.4,0.2,0.7,0,0.7,0.3c0.9,0.2,1.6-0.1,2.5-0.1c1.7,0,3.2,0.8,4.7,1c1,0.1,1.9-0.2,3.1-0.1
	c-0.3,0,0.8,0.3,1,0.1c0.2,0,0-0.1,0-0.3c1.2-0.2,2.7-0.3,3.7,0c1.2-0.6,1.8,0.7,3.3,0c-0.1-0.5,0.2-0.5,0-0.9c1-0.2,2,0.4,2.3-0.2
	c0.4,0.2,1,0.3,1-0.3c0.6,0,0.6,0.2,1.1,0.2c0.3-0.5,0.7-0.1,1.1-0.4c0.7,1.9,4.5,0,5.4,1.6c-0.4-0.1-0.4,0-1.3,0.3
	c0,0.9,1.1,0.8,1.8,1c0.2,0,0.1-0.3,0.1-0.4c0.3,0.4,1,0.1,1.8,0.1c2.2,0.1,5.6,0.4,8.1,0.7c0.6,0.1,1.2,0.1,1.6,0.1
	c0.2,0,0.3-0.2,0.4-0.2c0.4,0,1.6,0.3,2.3,0.2c0.5,0.5,1.4,1.4,2.9,1.3c0.7-0.8,1.3-0.8,2.3-0.9c-0.5-0.1-0.3-0.7-0.7-0.3
	c-0.4,0,0.2-0.5-0.1-0.4c0.2-0.5,0.7,0,0.7-0.6c1.1,0,1.4,0.1,2.3-0.4c0,0.2,0.5,0.5,0.1,0.6c0.4-0.1,0.5,0.6,1.2,0.5
	c-0.1,0.3,0,0.3-0.1,0.5c-0.2-0.1-0.4-0.4-0.7-0.4c-0.2,0.1-0.3,0.3-0.2,0.6c0.2,0.3,1.1-0.1,1.3,0.2c0.1-0.3-0.2-0.3-0.1-0.5
	c1.8,0.1,5.4,1,7-0.4c1-0.1,1.7-0.4,2.4-0.6c1.4,0.2,1.9,0.6,3.4,0.3c0-0.1,0-0.2-0.1-0.2c0.7,0.4,1.3-0.5,2.8-0.3
	c0.1-0.1,0.6-0.4,0.4-0.4c0.5-0.4,1.7-0.9,1.9,0.1c0.7,0.1,0.9,0,1.6,0.2c0.1-0.5-0.3-0.6-0.4-1c-0.3,0.2-0.6-0.2-0.7,0.2
	c-0.3,0-0.1-0.4-0.1-0.5c1.7,0.2,3.1-0.1,4.8-0.1c0.4,0.1,1.3,0.3,1.9,0.3c0.1,0,0.3-0.2,0.2-0.2c0.8,0.2,1.2,0.6,2.3,0.9
	c1.2,0.2,2.7,0.2,3.9,0.9c0,0,0.1,0,0.1,0v-1c0.7,0.1,1.4,0.1,2.1,0.2c0.4,0,0.1-0.4,0.5-0.4c0.7,0.3,1.6,0.2,2.5,0.2
	c0.1-0.5,1.5-0.6,2-1c0,0,0.1,0,0.1,0c0.2-0.3-0.5-0.2-1-0.2c0-0.3-0.4-0.2,0-0.4c-0.7-0.1-1.1,0.1-1,0.4c-1.7-0.1-3,0.1-4.5,0.1
	c0-0.2,0-0.4,0-0.5c2.8-0.3,6.2-0.1,7.4-0.7c0.5-0.1,0.3,0.2,0.7,0.2c1.3-0.4,2.4-0.4,3.6-1c0.8,0.2,2.6,0,2.8,0.4
	c0.8,0.1,0.3-0.4,1.2-0.3c0.1,0.2-0.2,0.3-0.2,0.4c1.7-0.1,3.3,0.5,6.4,0.3c1-0.5,4.5-0.6,5.9-0.3c0.7,0,1-0.2,1.2-0.4
	c2.4,0.2,3.4-0.5,2.6-1.3c2.3-0.2,3.9,0.7,5.9,0.3c0-0.2,0-0.4,0-0.6c0.9,0.2,1.6-0.1,2.9,0c0.2,0.1,0.4,0.3,0.7,0.4
	c2.3-0.3,8.2-0.3,12.6-0.3c3.1,0,5.8,0.5,7.4,1.1c-0.2,0.6,0.1,0.8-0.5,1.1c0.9,0,2.1-0.1,2.9,0.3c0.3,0,0.2-0.2,0.2-0.3
	c3,0.6,3.5-1.1,6.4-0.9c-0.8-0.5,1.8,0.1,1.9-0.5c2.7,0.4,5.9,0.3,9,0.2c0.8-0.7,1.6-1.6,1.3-2.7c0.5-0.5,1.4-0.1,2-0.5
	c0-0.3-0.5,0.1-0.4-0.3c0.4,0.1,0.9-0.6,1.4-0.9c1,0.3,1.7,0.3,2.4-0.1c2.1,0.2,3.4,1.5,5.4,2c0.3,0-0.2-0.2,0-0.4
	c1.6,0.4,3.2,0.3,4.2,0.7c0.3-0.5,0.8,0.2,1.2,0.3c0.8-0.5,2.2-0.1,2.8-0.5c0.6,0.5,1.5-0.2,1.8,0.5c0.1-0.4,0.6-0.3,1.1-0.3
	c-0.1,0.9,1.2-0.3,1.2,0.4c0.2-0.6,1,0.1,1.1-0.3c0.6,0.4,2.1-0.4,2.7,0.2c0.3-0.1,1-0.5,1.1,0.1c0.4,0.1,0.3-0.4,0.7-0.3
	c0.7,0.3,1.3,0.4,2.2,0.2c0.2,0,0,0.1,0,0.2c0.5-0.3,0.6,0.1,1.1,0.1c0.2,0,0.1-0.4,0.2-0.4c0.6,0.2,0.8,0,1.3,0.3
	c1-0.5,2.1,0.3,2.9-0.1c0.4,0,0.4,0.2,0.6,0.3c0.1,0,0.1-0.1,0-0.1c1-0.5,2.2,0,3.4,0c0.7,0,1.4-0.3,2.1-0.3c0.8,0,2.1,0.4,2.9,0.5
	c0.6,0.1,1.3-0.2,2.1-0.2c0.7,0,1.3,0.4,1.9,0.4c0.3,0,1-0.1,1.6-0.1c0.6,0,1.1,0.1,1.3-0.3c0.5,0.9,1.9-0.4,2.3,0.4
	c0.5,0.1,0.6-0.2,1-0.2c0,0.2,0.1,0.2,0.1,0.3c0.1-0.2,0.4-0.2,0.8-0.2C576.6,3.8,577,3.7,577,4c0.2,0,0.2-0.2,0.4-0.2
	c-0.1-0.2-0.1-0.4-0.5-0.3c0.1-0.1,0.3-0.1,0.2-0.3c1.1,1.1,2.5,0.3,3.3,0.1c1.7,0.2,2.9,0.5,5.1,0c0,0.2,0.1,0.2,0.1,0.3
	c1.3,0,3.2-0.1,4.9,0.2c0.4,0,0.8,0.1,1.2,0.1c0.1-0.1,0.1-0.2,0.2-0.3c0.3,0.2,1-0.1,1,0.4c1.4-0.1,4.2-0.4,5.7,0
	c0.1,0,0.1,0,0.2,0c3.1-0.4,6.2-0.4,9,0.1c0.5-0.5,1.2-0.1,1.9-0.4c0,0.1,0,0.2,0,0.3c1.3,0,2.6,0,3.5-0.3c0,0,0.1,0.1,0.1,0.1
	c0.1,0,0.2,0,0.3-0.1c0.2,0.1,0.5,0.2,0.7,0.3c0,0,0,0,0,0c0.7,0,0.9-0.2,1.2-0.4c-1,0.3-2.2,0-2.4-0.9c0.7,0,1.5-0.1,1.4-0.5
	c0.4,0,0.8,0,1.2,0c0.2,0.3-0.4,0.3-0.5,0.5c0.5-0.1,0.7-0.3,1-0.5c2.6,0.1,3.2,0.3,5.5-0.3c2.8,1.1,7.7,0.2,10.2,0.9
	c0.2-0.2,0.7-0.3,1.4-0.2c0.4,0.6,1.6,0.9,0,1.3c-1.9-0.4-4.6-0.7-6.7-1c-0.7,0.1-0.3,0.2-0.2,0.4c-0.4,0-1.2,0.1-1-0.2
	c-0.4,0-0.2,0.3-0.9,0.2c0.1,0.1,0.2,0.2,0.2,0.3c-0.7,0.1-0.6-0.2-1-0.2c1.2,0.6,1.8,1,3.8,1.2c0,0,0,0,0,0.1c0.3,0,0.5,0,0.8,0
	c0.3,0.1,0.6,0.2,1,0.2c-0.1,0-0.1,0-0.2,0c1-0.3,2.2,0.1,3.1-0.5c0.5,0.1,1.3,0.4,0.7,0.6c1.9-0.3,4.6-0.4,5.5-0.5
	c0.9,0.4,2.3,0.5,2.9,1.1c0.7,0.1,0.3-0.4,1.2-0.2c0-0.3-1-0.3,0.2-0.3c-0.2-0.1-0.4-0.2-0.7-0.2c0.9-0.3,1.1,0.6,1.7,0.7
	c0.9,0.1,1.3-0.3,1.9,0c-0.3-0.2-0.3-0.3,0-0.4c-0.6-0.1-1,0.3-1-0.1c0.4,0,0.8,0,1.2,0c-0.8-0.4-1.7-1-3.6-0.9
	c-0.2-0.2-0.7-0.3-0.5-0.6c-1.3,0.1-5.2,0-6.2-0.7c1.2,0.2,1.3-0.2,2.4,0.1c0.5,0-0.3-0.3,0.2-0.4c0.5,0.4,0.9,0,1.4,0
	c2.7,0,5.1,0.4,7.4,1c-0.3,0.5,0.9,0.2,0.7,0.6c0.1-0.1,0.8-0.9,0.2-1.1c1.1,0.1,2.6-0.3,4.3,0.1c0.4-0.6,2.6-0.2,3.8-0.2
	c0-0.1-0.3-0.1-0.5-0.1c3.4-0.4,10.2,0.7,15.2-0.2c0.3-0.5-0.5-0.5-1-0.6c0.9-0.9,2.8-0.5,4.3-0.9c2.4,0.5,4.9-0.6,8.1-0.4
	c0.1-0.3-0.9-0.1-0.7-0.4c0.5-0.2,1.1,0.1,2.1,0c0.4,0.6,0.7,1,0.5,1.6c2.3,0.7,4,1.7,2.4,2.9c0.2,1.3,5.7,1.1,7.4,1.1
	c-0.1-0.1-0.2-0.2-0.5-0.2c0.5-0.3,2.1-0.1,1.9-0.7c1.3-0.2,1,0.3,1.9,0.3c-0.2,0.3-0.8,0.5,0,0.7c-1,0.1-2.2,0.1-3.3,0
	c0.8,0.4-1,0.5-1.9,0.7c0.1,0.6,0.1,0.9-0.7,1.1c0.3,0.3,0.7,0.6,1.3,0.7c0.1-0.1,0.1-0.2,0-0.4c0.2-0.3,1,0,0.8-0.5
	c0.4,0.2,0.7,0,0.7,0.3c0.9,0.2,1.6-0.1,2.5-0.1c1.2,0,2.4,0.4,3.5,0.7c0.4,0,0.8-0.2,1.1-0.5c1.4,0.2,3.5-0.2,4.5,0.4
	c0.6-0.1,1.3-0.1,1.9-0.1c0.1-0.1,0.2-0.1,0.3-0.2c1.6,0.3,3.2,0,4.6,0.1c0-0.2,0.1-0.3,0-0.5c1-0.2,2,0.4,2.3-0.2
	c0.4,0.2,1,0.3,1-0.3c0.6,0,0.6,0.2,1.1,0.2c0.3-0.5,0.7-0.1,1.1-0.4c0.3,0.7,1,0.9,1.9,0.9c0,0,0,0,0,0c0,0,0.1,0,0.1,0
	c1.2,0,2.6-0.2,3.3,0.5c3.6,0,7.1-0.1,11.1,0.3c0.5-0.1-0.3-0.2,0.2-0.3c1.6,0,3-0.3,4.3,0.3c-0.2-0.2,1.5-0.3,1.7,0
	c0.8-0.5,2.4-0.1,3.8-0.3c0,0.1,0,0.3,0,0.4c2.2-0.5,4.9-0.5,7.4-0.6c0,0.2-0.3,0.2-0.2,0.4c1.7-0.4,7.1-0.5,7.6,0.1
	c0.6,0,0.6-0.3,0.9-0.4c0.9-0.1,0.6,0.3,1,0.4c0.3,0,0.1-0.1,0-0.1c1.3-0.1,2.6-0.2,4-0.2c0-0.1,0.1-0.3,0-0.4
	c1.7,0.2,3.1-0.1,4.8-0.1c0.4,0.1,1.3,0.3,1.9,0.3c0.1,0,0.3-0.2,0.2-0.2c0.8,0.2,1.2,0.6,2.3,0.9c1.2,0.2,2.7,0.2,3.9,0.9
	c0.3-0.1,0.7-0.2,0.6-0.6c1.5-0.1,3.1,0,4.7-0.1c-0.6-0.8,1.3-0.8,1.9-1.4c0,0,0.1,0,0.1,0c0.2-0.3-0.5-0.2-1-0.2
	c0-0.3-0.4-0.2,0-0.4c-0.7-0.1-1.1,0.1-1,0.4c-1.7-0.1-3,0.1-4.5,0.1c0-0.2,0-0.4,0-0.5c2.8-0.3,6.2-0.1,7.4-0.7
	c0.5-0.1,0.3,0.2,0.7,0.2c1.3-0.4,2.4-0.4,3.6-1c0.8,0.2,2.6,0,2.8,0.4c0.8,0.1,0.3-0.4,1.2-0.3c0.1,0.2-0.2,0.3-0.2,0.4
	c1.7-0.1,3.3,0.5,6.4,0.3c1-0.5,4.5-0.6,5.9-0.3c0.7,0,1-0.2,1.2-0.4c2.4,0.2,3.4-0.5,2.6-1.3c2.3-0.2,3.9,0.7,5.9,0.3
	c0-0.2,0-0.4,0-0.6c0.9,0.2,1.6-0.1,2.9,0c0.2,0.1,0.4,0.3,0.7,0.4c2.3-0.3,8.2-0.3,12.6-0.3c3.1,0,5.8,0.5,7.4,1.1
	c-0.1,0.6,0.1,0.8-0.5,1.1c0.9,0,2.1-0.1,2.9,0.3c0.3,0,0.2-0.2,0.2-0.3c3,0.6,3.5-1.1,6.4-0.9c-0.8-0.5,1.8,0.1,1.9-0.5
	c5.4,0.8,12.5-0.4,18.3,0.4c0.2,0.4,0.6,0.7,1.1,1c1-0.1,2-0.1,2.6,0c0.1-0.1,0-0.1,0-0.2h3.4c0,0,0,0,0.1,0c-0.3,0-0.4,0.1-0.5,0.2
	c0.3,0,0.6,0,1.1,0c0.1,0,0.2-0.1,0.4-0.1c0.5,0,1.1,0.1,1.8,0.1c1,0,2-0.1,2.8-0.3h0.1h2.6h6.9c0,1.2,0,2.6-0.2,3.9
	c0,0.4-0.1,0.9-0.1,1.3c0.1,0.1,0.2,0.1,0.3,0.2c-0.2,0.3,0.1,1.1-0.4,1c0.1,1.5,0.4,4.3,0,5.9c0,0.1,0,0.1,0,0.2
	c0.4,3.3,0.4,6.5-0.1,9.3c0.5,0.5,0.1,1.3,0.4,2c-0.1,0-0.2,0-0.3,0c0,1.4,0,2.7,0.3,3.6c0,0-0.1,0.1-0.1,0.1c0,0.1,0,0.2,0,0.3
	c-0.1,0.2-0.2,0.5-0.3,0.7c0,0,0,0,0,0c0,0.7,0.2,0.9,0.4,1.2c-0.3-1.1,0-2.3,0.8-2.5c0,0.8,0.1,1.5,0.5,1.5c0,0.4,0,0.8,0,1.2
	c-0.3,0.2-0.3-0.4-0.5-0.5c0.1,0.6,0.3,0.7,0.5,1c-0.1,2.7-0.3,3.3,0.3,5.7c-1,3-0.2,8-0.8,10.6c0.2,0.2,0.3,0.7,0.2,1.5
	c-0.6,0.4-0.9,1.6-1.2,0c0.3-2,0.7-4.8,0.9-6.9c-0.1-0.7-0.2-0.3-0.4-0.2c0-0.4-0.1-1.2,0.2-1c0-0.4-0.3-0.2-0.2-1
	c-0.1,0.1-0.2,0.3-0.3,0.2c-0.1-0.8,0.2-0.6,0.2-1c-0.6,1.2-1,1.9-1.1,3.9c0,0,0,0-0.1,0c0,0.3,0,0.5,0,0.8
	c-0.1,0.3-0.2,0.7-0.2,1.1c0-0.1,0-0.1,0-0.2c0.3,1.1-0.1,2.3,0.5,3.2c-0.1,0.5-0.4,1.3-0.6,0.7c0.3,2,0.3,4.8,0.5,5.7
	c-0.4,0.9-0.5,2.4-1,3c-0.1,0.8,0.4,0.3,0.2,1.2c0.3,0,0.3-1.1,0.3,0.2c0.1-0.2,0.2-0.4,0.2-0.7c0.2,0.5,0,0.7-0.2,1
	c0.1,0.8,0.3,1.7,0.2,2.4c0.3-0.7,0.7-1.6,0.6-3.2c0.2-0.2,0.3-0.7,0.6-0.5c-0.1-1.4,0-5.4,0.7-6.4c-0.2,1.2,0.2,1.3-0.1,2.5
	c0,0.5,0.3-0.4,0.4,0.2c-0.3,0.5,0,0.9,0,1.5c0,2.7-0.4,5.3-0.9,7.6c-0.4-0.3-0.2,1-0.6,0.7c0.1,0.1,0.9,0.9,1,0.2
	c-0.1,1.2,0.3,2.7-0.1,4.4c0.6,0.4,0.2,2.7,0.2,3.9c0.1,0,0.1-0.3,0.1-0.5c0.3,3.5-0.6,10.6,0.2,15.8c0.5,0.3,0.5-0.6,0.6-1
	c0.9,0.9,0.5,2.9,0.8,4.4c-0.5,2.5,0.5,5.1,0.4,8.4c0.3,0.1,0.1-1,0.4-0.7C895.1,104.6,894.8,105.2,894.9,106.2z"/>
<path fill="#ffffff" d="M890.4,72.7c0-0.6,0.2-1.1-0.1-1.2c0,0.5-0.3,0.5-0.3,1C890.2,72.4,890.2,72.8,890.4,72.7z"/>
<path fill="#ffffff" d="M888.6,74.5c0-0.7,0.4-0.2,0.4-0.7c-0.4,0.2-0.1-1-0.5-0.7c-0.2,0.2-0.3,0.4-0.3,1
	C888.6,73.7,888.5,74.3,888.6,74.5z"/>
<path fill="#ffffff" d="M888.9,72.7c0.1,0,0.2,0,0.3,0c-0.1-0.8,0-1-0.1-1.2c0,0.2-0.1,0.3-0.2,0.2c0-0.1-0.1-0.3-0.1,0
	C888.9,71.8,888.8,72.3,888.9,72.7z"/>
<path fill="#ffffff" d="M869.3,7.9c0.1,0,0.1,0,0.2,0c0-0.1,0.1-0.1,0.3-0.2C869.3,7.6,869.2,7.7,869.3,7.9z"/>
<path fill="#ffffff" d="M104.8,7.5c0,0,0-0.1,0-0.1C104.8,7.4,104.8,7.5,104.8,7.5C104.8,7.5,104.8,7.5,104.8,7.5z"/>
<path fill="#ffffff" d="M106.5,7.7c-0.2,0-0.3,0-0.3-0.1c-0.1,0-0.3,0-0.4,0c0-0.1,0-0.1-0.1-0.2c-0.3,0.1-0.8,0.1-0.6,0.3
	c0.2,0.2,0.4,0.3,0.9,0.3c0,0,0,0,0,0C105.8,7.8,106.4,7.9,106.5,7.7z"/>
<path fill="#ffffff" d="M108.4,5.3c-0.3,0-0.4,0.1-0.5,0.2c0.9,0,1.4-0.1,1,0.3c1.1,0.2,0.5-0.4,1-0.5c-0.6,0-1.1-0.1-1.4-0.2
	c0-0.1,0-0.1-0.2-0.1C108.2,5.1,108.3,5.2,108.4,5.3z"/>
<path fill="#ffffff" d="M869.7,7.2c0.1,0.1,0.5,0.1,0.5,0.3c-0.2,0-0.3,0.1-0.5,0.1c0,0.1,0,0.1,0.1,0.1c0.5-0.1,1.4-0.2,1.8-0.4
	c-0.7-0.2-1.5-0.1-1.9-0.2C869.7,7.1,869.7,7.2,869.7,7.2z"/>
<path fill="#ffffff" d="M104.1,5.4c-0.3,0-0.6,0-0.5,0.2c1.3,0,2,0.2,3.3,0.4c0.4-0.2,0.9-0.5,1-0.9c-0.7-0.2-1.7-0.6-2.4-0.2
	c0.6-0.4-1.8-0.7-2.6-0.4c0.4,0-0.1,0.5-0.7,0.3C101.9,5.6,103.7,5.2,104.1,5.4z"/>
<path fill="#ffffff" d="M150.5,6.1c0.1,0,0.1,0,0.2,0c0,0,0,0,0,0.1c0.9,0.4,2.7,0.4,3.3-0.1c-0.4,0-0.2-0.3-0.2-0.4
	c-1.3-0.2-2.8-0.5-3.6,0.1C150.2,5.9,150.3,6,150.5,6.1z"/>
<path fill="#ffffff" d="M122.1,6.6c0.3-0.2,0.8-0.3,1.5-0.4c-0.2-0.1-0.3-0.1-0.5-0.2c0.5-0.1,1.1,0.1,1.2-0.4
	c-1.4-0.2-2.3,0-3.6-0.3c0,0.6,0.5,0.1,0.7,0.7c-1.6-0.1-2.9,0.3-4.3-0.5c-0.6,0-0.5,0.2-1.2,0.1c0,0.1,0,0.2,0,0.3
	c0,0.2-0.2,0.2-0.2,0.4C117.4,6.2,119,6.8,122.1,6.6z"/>
<path fill="#ffffff" d="M115.6,5.8c0-0.2,0-0.3-0.3-0.4c-0.2,0.2-0.7,0.3-1,0.5c0.2,0,0.4,0.1,0.4,0.2
	C115.4,6.2,115.2,5.9,115.6,5.8z"/>
<path fill="#ffffff" d="M103.6,6c0.5,0,0.5,0.3,1,0.3c-0.1-0.2,0.3-0.2,0.2-0.4C104.3,5.9,103.8,5.7,103.6,6z"/>
<path fill="#ffffff" d="M48.8,5.5c-0.6,0-1.1,0-1.7,0c0,0.1-0.1,0.1-0.1,0.2h1.8C48.7,5.6,48.7,5.6,48.8,5.5z"/>
<path fill="#ffffff" d="M190.8,8.6c0-0.3,1.5-0.3,2.1-0.6c-0.7-0.2-1.5-0.1-1.9-0.2c-0.2,0.3,0.5,0.2,0.5,0.4
	c-0.2,0-0.3,0.1-0.5,0.1c-0.3,0-0.9-0.4-0.9-0.1C190.5,8.2,189.7,8.7,190.8,8.6z"/>
<path fill="#ffffff" d="M64.5,8.6c0,0.1,0,0.3,0,0.4c0.2-0.1,0.5-0.1,1-0.1c-0.6-0.8-2.2-1.1-2.4-1.8c-1.3,0.1-1.6-0.3-3.6-0.2
	c0.1-0.1,0.5-0.1,0.5-0.2c-0.6-0.1-2.1,0.1-2.4-0.4c-0.3,0-0.2,0.2-0.2,0.3c-1.1-0.3-1.4-0.3-2.8-0.4c1.4,0.3-0.6,0.2-1.2,0.3
	c-0.2-0.3,0.8-0.2,1-0.3c-1.1,0-2.1-0.1-3.3-0.2v2c0.3,0.1,0.5,0.2,0.7,0.3C54.9,8.2,60,9.2,64.5,8.6z"/>
<path fill="#ffffff" d="M71.1,4.8c-0.8-0.1,0.3-0.2,0.2-0.3c-0.3,0-0.4-0.2-0.7-0.2c0.1,0.2,0,0.4-0.2,0.5C70.7,4.9,70.9,5,71.1,4.8
	z"/>
<path fill="#ffffff" d="M66.6,8.8c0.3,0,0.5-0.1,0.7-0.1c0-0.1,0-0.1,0-0.2c-0.4,0-0.7,0-1-0.1c0.1,0.2-0.4,0.3,0,0.3
	C66.4,8.6,66.7,8.6,66.6,8.8z"/>
<path fill="#ffffff" d="M62.8,5.9c-0.8,0-1.3,0.2-1.4,0.5c0.2,0,0.3,0,0.5,0C62.1,6,62.7,6.2,62.8,5.9z"/>
<path fill="#ffffff" d="M891.4,286.8c-0.2,0.2,0,0.4,0,0.7c0.1-0.2,0.3-0.3,0.5-0.2c0-0.3-0.2-0.4-0.2-0.7
	C891.6,286.5,891.5,287.6,891.4,286.8z"/>
</svg>